<svg data-v-0dd9719b="" version="1.0" xmlns="http://www.w3.org/2000/svg" xmlns:xlink="http://www.w3.org/1999/xlink" width="100%" height="100%" viewBox="0 0 340.000000 250.000000" preserveAspectRatio="xMidYMid meet" color-interpolation-filters="sRGB" style="margin: auto;"> <rect data-v-0dd9719b="" x="0" y="0" width="100%" height="100%" fill="#edeae2" fill-opacity="1" class="background"></rect> <rect data-v-0dd9719b="" x="0" y="0" width="100%" height="100%" fill="" fill-opacity="1" class="watermarklayer"></rect> <g data-v-0dd9719b="" fill="#B860E6" class="icon-text-wrapper icon-svg-group iconsvg" transform="translate(76.50472259521484,85.15568161010742)"><g class="iconsvg-imagesvg" transform="translate(0,0)"><g><rect fill="#B860E6" fill-opacity="0" stroke-width="2" x="0" y="0" width="65.51999999999998" height="79.6886402335198" class="image-rect"></rect> <svg x="0" y="0" width="65.51999999999998" height="79.6886402335198" filtersec="colorsb6169194469" class="image-svg-svg primary" style="overflow: visible;"><svg xmlns="http://www.w3.org/2000/svg" viewBox="7.973848342895508 3.846517562866211 1677.21923828125 2039.910400390625" preserveAspectRatio="none" display="block"><defs><linearGradient id="o" gradientUnits="userSpaceOnUse" x1="85.615" y1="1824.82" x2="27.007" y2="1814.61"><stop class="stop0" offset="0" stop-opacity="1" stop-color="rgb(20,45,82)"></stop><stop class="stop1" offset="1" stop-opacity="1" stop-color="rgb(48,98,159)"></stop></linearGradient><linearGradient id="n" gradientUnits="userSpaceOnUse" x1="1421.65" y1="1681.05" x2="1429.12" y2="1651.95"><stop class="stop0" offset="0" stop-opacity="1" stop-color="rgb(141,215,254)"></stop><stop class="stop1" offset="1" stop-opacity="1" stop-color="rgb(190,238,254)"></stop></linearGradient><linearGradient id="m" gradientUnits="userSpaceOnUse" x1="1250.45" y1="1798.79" x2="1199.53" y2="1295.26"><stop class="stop0" offset="0" stop-opacity="1" stop-color="rgb(35,110,182)"></stop><stop class="stop1" offset="1" stop-opacity="1" stop-color="rgb(70,147,216)"></stop></linearGradient><linearGradient id="l" gradientUnits="userSpaceOnUse" x1="1258.7" y1="2050.89" x2="1399.45" y2="1662.92"><stop class="stop0" offset="0" stop-opacity="1" stop-color="rgb(40,141,217)"></stop><stop class="stop1" offset="1" stop-opacity="1" stop-color="rgb(72,180,255)"></stop></linearGradient><linearGradient id="k" gradientUnits="userSpaceOnUse" x1="616.259" y1="1555.39" x2="613.959" y2="1563.29"><stop class="stop0" offset="0" stop-opacity="1" stop-color="rgb(35,113,195)"></stop><stop class="stop1" offset="1" stop-opacity="1" stop-color="rgb(49,135,214)"></stop></linearGradient><linearGradient id="j" gradientUnits="userSpaceOnUse" x1="578.399" y1="1633.01" x2="553.035" y2="1723.14"><stop class="stop0" offset="0" stop-opacity="1" stop-color="rgb(175,232,254)"></stop><stop class="stop1" offset="1" stop-opacity="1" stop-color="rgb(62,175,255)"></stop></linearGradient><linearGradient id="i" gradientUnits="userSpaceOnUse" x1="675.847" y1="1528.79" x2="590.231" y2="1553.77"><stop class="stop0" offset="0" stop-opacity="1" stop-color="rgb(11,11,35)"></stop><stop class="stop1" offset="1" stop-opacity="1" stop-color="rgb(28,47,78)"></stop></linearGradient><linearGradient id="h" gradientUnits="userSpaceOnUse" x1="824.421" y1="1559.82" x2="812.721" y2="1645.26"><stop class="stop0" offset="0" stop-opacity="1" stop-color="rgb(14,21,45)"></stop><stop class="stop1" offset="1" stop-opacity="1" stop-color="rgb(17,43,69)"></stop></linearGradient><linearGradient id="g" gradientUnits="userSpaceOnUse" x1="801.082" y1="1574.24" x2="809.415" y2="1472.31"><stop class="stop0" offset="0" stop-opacity="1" stop-color="rgb(166,66,26)"></stop><stop class="stop1" offset="1" stop-opacity="1" stop-color="rgb(226,109,37)"></stop></linearGradient><linearGradient id="f" gradientUnits="userSpaceOnUse" x1="441.887" y1="1894.71" x2="424.791" y2="1685.34"><stop class="stop0" offset="0" stop-opacity="1" stop-color="rgb(182,135,110)"></stop><stop class="stop1" offset="1" stop-opacity="1" stop-color="rgb(169,149,130)"></stop></linearGradient><linearGradient id="e" gradientUnits="userSpaceOnUse" x1="367.599" y1="1957.53" x2="362.018" y2="1859.77"><stop class="stop0" offset="0" stop-opacity="1" stop-color="rgb(40,122,194)"></stop><stop class="stop1" offset="1" stop-opacity="1" stop-color="rgb(50,165,250)"></stop></linearGradient><linearGradient id="d" gradientUnits="userSpaceOnUse" x1="459.475" y1="1663.53" x2="351.919" y2="1973.51"><stop class="stop0" offset="0" stop-opacity="1" stop-color="rgb(207,179,148)"></stop><stop class="stop1" offset="1" stop-opacity="1" stop-color="rgb(227,206,194)"></stop></linearGradient><linearGradient id="c" gradientUnits="userSpaceOnUse" x1="342.431" y1="1287.67" x2="464.552" y2="1870.75"><stop class="stop0" offset="0" stop-opacity="1" stop-color="rgb(53,110,179)"></stop><stop class="stop1" offset="1" stop-opacity="1" stop-color="rgb(56,187,255)"></stop></linearGradient><linearGradient id="b" gradientUnits="userSpaceOnUse" x1="888.97" y1="128.756" x2="937.661" y2="20.154"><stop class="stop0" offset="0" stop-opacity="1" stop-color="rgb(253,202,75)"></stop><stop class="stop1" offset="1" stop-opacity="1" stop-color="rgb(255,230,153)"></stop></linearGradient><linearGradient id="a" gradientUnits="userSpaceOnUse" x1="335.468" y1="1284.44" x2="1313.4" y2="318.527"><stop class="stop0" offset="0" stop-opacity="1" stop-color="rgb(249,147,9)"></stop><stop class="stop1" offset="1" stop-opacity="1" stop-color="rgb(255,182,33)"></stop></linearGradient></defs><path fill="url(#a)" d="M 64.4488 618.849 C 84.4146 573.359 116.848 547.67 162.069 530.035 C 213.718 509.893 270.771 514.581 325.201 514.435 C 363.877 514.521 402.553 514.085 441.218 513.127 C 459.745 512.698 489.315 513.885 506.567 509.507 C 516.362 507.021 524.585 502.23 528.664 492.51 C 536.104 474.781 533.674 438.574 533.848 418.832 L 534.112 280.059 C 534.191 206.905 531.996 137.005 578.363 75.5509 C 587.513 63.4231 599.977 49.3144 612.495 40.6403 C 622.643 33.6086 635.416 28.2215 646.733 23.3052 C 700.285 0.0423532 778.747 4.14721 836.549 4.09465 C 870.867 4.06345 908.516 3.2519 942.461 7.37174 C 963.511 9.9264 982.722 13.8164 1002.45 21.6692 C 1047.9 40.2311 1084.24 75.9139 1103.62 121.022 C 1127.82 177.406 1124.11 238.44 1124.05 298.413 L 1123.94 413.556 C 1123.93 433.208 1121.52 466.64 1126.41 484.693 C 1129.36 495.578 1136.51 503.581 1146.97 507.807 C 1162.9 514.247 1201.32 511.355 1219.42 511.447 L 1358.6 513.525 C 1434.2 515.29 1498.24 511.499 1556.11 569.709 C 1572.57 586.272 1586.12 604.221 1595.75 625.607 C 1607.82 652.421 1613.48 680.246 1616.79 709.32 C 1618.04 720.359 1617.41 731.663 1617.59 742.758 L 1618.12 811.44 C 1618.07 844.348 1620.01 878.432 1617.2 911.179 C 1615.34 932.887 1611.6 956.588 1603.73 976.94 C 1592.02 1007.22 1570 1044.05 1543.15 1062.91 C 1539.08 1068.56 1531.85 1072.93 1526.06 1076.67 C 1500.28 1093.28 1470.55 1106.39 1440.13 1111.3 C 1407.82 1116.51 1374.12 1115.91 1341.46 1116.04 L 1218.77 1116.34 C 1197.83 1116.51 1168.64 1114.83 1148.6 1119.28 C 1140.66 1121.04 1134.74 1124.66 1129.86 1131.24 C 1128.71 1132.79 1127.64 1134.41 1126.65 1136.07 C 1114.29 1178.69 1122.62 1225.97 1119.62 1269.75 L 1119.09 1272.46 C 1123.59 1284.39 1119.32 1332.01 1121.91 1335.59 L 1122.41 1332.24 C 1124.64 1343.03 1123.56 1355.18 1122.54 1366.1 L 1122.18 1363.85 C 1121.18 1380.94 1121.7 1400.72 1116.46 1417.02 L 1114.04 1418.49 C 1110.86 1433.71 1104.68 1457.32 1095.72 1469.8 C 1087.84 1486.17 1068.38 1514.65 1053.17 1524.81 C 1053.26 1523.98 1053.25 1523.71 1053.58 1522.84 C 1054.8 1519.58 1057.26 1517.32 1060.32 1515.81 C 1060.55 1515.7 1060.78 1515.59 1061.01 1515.49 C 1051.52 1508.79 1044.88 1517.08 1035.44 1516.77 C 1034.91 1516.76 1034.37 1516.7 1033.84 1516.67 C 1021.38 1520.12 1009.36 1524.96 996.933 1528.56 C 985.663 1531.83 973.302 1533.84 962.426 1538.07 C 962.12 1538.54 962.142 1538.6 961.579 1538.95 C 956.386 1542.19 941.825 1542.54 935.416 1543.18 C 879.077 1548.82 746.394 1550 693.749 1535.3 C 677.826 1530.85 639.122 1517.11 631.246 1503.04 C 627.861 1496.59 576.882 1458.76 568.205 1454.64 C 564.414 1452.84 559.612 1454.1 555.689 1452.4 C 552.438 1445.86 544.977 1429.95 545.177 1423.08 L 544.007 1428.41 C 532.94 1396.52 535.697 1357.67 535.668 1324.49 C 535.861 1309.86 538.156 1282.07 534.804 1269 C 534.63 1244.54 533.613 1220.01 533.282 1195.53 C 533.088 1181.15 534.799 1161.55 531.866 1147.92 C 529.321 1136.09 522.918 1126.03 511.175 1121.65 C 492.841 1114.8 463.504 1117 443.621 1116.88 L 320.054 1116.54 C 285.039 1116.42 247.782 1117.78 213.419 1110.65 C 186.186 1104.85 160.197 1094.25 136.662 1079.37 C 90.1183 1049.62 57.3762 1002.52 45.7051 948.533 C 36.7764 907.694 38.2512 862.604 37.9577 820.99 C 37.6724 780.533 36.5551 738.455 41.6743 698.271 C 44.7582 674.064 51.123 639.587 64.4488 618.849 z"></path><path fill="#d06010" d="M534.804 1269C534.63 1244.54 533.613 1220.01 533.282 1195.53 533.088 1181.15 534.799 1161.55 531.866 1147.92 529.321 1136.09 522.918 1126.03 511.175 1121.65 492.841 1114.8 463.504 1117 443.621 1116.88L320.054 1116.54C285.039 1116.42 247.782 1117.78 213.419 1110.65 186.186 1104.85 160.197 1094.25 136.662 1079.37 90.1183 1049.62 57.3762 1002.52 45.7051 948.533 36.7764 907.694 38.2512 862.604 37.9577 820.99 37.6724 780.533 36.5551 738.455 41.6743 698.271 44.7582 674.064 51.123 639.587 64.4488 618.849 64.4939 619.078 64.5508 619.305 64.5843 619.536 65.2608 624.208 53.5126 651.802 51.2828 658.527 48.5841 666.667 47.6337 675.396 46.3742 683.851 37.9724 740.257 35.5508 917.434 52.8062 967.872 66.4869 1007.86 91.5671 1041.82 124.535 1067.96 146.42 1085.32 187.805 1107.87 215.859 1104.37 230.281 1102.58 243.772 1095.74 258.059 1093.96 307.657 1087.78 358.609 1089.02 408.519 1088.36 436.331 1087.99 465.629 1085.21 493.324 1088.19 501.024 1089.02 510.304 1090.73 516.657 1095.46 521.842 1099.31 522.36 1105.23 523.006 1111.17 523.093 1111.97 523.142 1112.78 523.21 1113.58 524.207 1125.5 532.558 1137.41 534.608 1149.66 536.063 1158.35 535.748 1167.52 535.909 1176.32 536.315 1198.57 535.333 1221.08 536.219 1243.26 536.622 1253.38 541.612 1264.48 538.38 1274.07 536.209 1280.5 538.302 1376.11 539.155 1387.99 539.893 1398.25 540.254 1413.15 544.753 1422.34 544.878 1422.59 545.036 1422.83 545.177 1423.08L544.007 1428.41C532.94 1396.52 535.697 1357.67 535.668 1324.49 535.861 1309.86 538.156 1282.07 534.804 1269zM1126.65 1136.07C1127.01 1133.12 1127.41 1130.54 1129.04 1127.99 1136.7 1115.96 1151.64 1118.23 1163.59 1115.41 1166.71 1114.68 1168.79 1112.28 1171.52 1110.81 1175.45 1108.67 1180.93 1107.76 1185.32 1107.11 1199.48 1105 1211.87 1106.79 1225.97 1106.93 1249.67 1107.15 1284.32 1105.74 1307.09 1100.67 1315.04 1098.9 1324.18 1100.8 1332.32 1100.88 1362.92 1101.18 1396.79 1099.05 1427.01 1103.25 1430.34 1103.72 1432.64 1104.59 1435.42 1106.44 1435.89 1106.75 1437.1 1107.58 1437.43 1107.76 1439.65 1108.95 1442.27 1108.72 1444.63 1108.16 1463.29 1103.72 1481.77 1098.3 1498.84 1089.42 1511.57 1082.8 1522.79 1075.42 1534.54 1067.27 1536.2 1066.12 1539.14 1063.42 1540.84 1062.92 1541.58 1062.7 1542.38 1062.91 1543.15 1062.91 1539.08 1068.56 1531.85 1072.93 1526.06 1076.67 1500.28 1093.28 1470.55 1106.39 1440.13 1111.3 1407.82 1116.51 1374.12 1115.91 1341.46 1116.04L1218.77 1116.34C1197.83 1116.51 1168.64 1114.83 1148.6 1119.28 1140.66 1121.04 1134.74 1124.66 1129.86 1131.24 1128.71 1132.79 1127.64 1134.41 1126.65 1136.07zM631.246 1503.04C631.518 1503.16 631.792 1503.27 632.062 1503.39 640.328 1507.07 647.786 1513.06 655.811 1517.41 669.032 1524.59 685.568 1530.14 700.05 1534.37 708.946 1536.97 719.195 1537.81 728.375 1538.99 783.184 1546 840.287 1545.91 895.432 1543.41 902.303 1543.1 913.617 1544.09 919.939 1541.95L918.22 1541.11C919.749 1540.1 921.737 1539.96 923.566 1540.55 923.973 1540.68 924.324 1540.94 924.715 1541.12 933.679 1545.07 953.138 1535.32 962.426 1538.07 962.12 1538.54 962.142 1538.6 961.579 1538.95 956.386 1542.19 941.825 1542.54 935.416 1543.18 879.077 1548.82 746.394 1550 693.749 1535.3 677.826 1530.85 639.122 1517.11 631.246 1503.04zM1033.84 1516.67C1034.77 1516.03 1034.2 1516.5 1035.28 1515.01 1033.75 1514.57 1032.98 1514.49 1031.82 1513.35 1040.5 1504.93 1049.86 1497.46 1058.26 1488.63 1060.39 1486.39 1064.38 1480.24 1066.95 1479.6 1066.12 1482.32 1064.45 1484.59 1063.32 1487.16 1059.26 1496.32 1050.74 1501.92 1044.41 1509.51 1046.81 1510.21 1063.04 1504.97 1068.06 1504.57 1077.35 1503.83 1086.45 1474.3 1095.72 1469.8 1087.84 1486.17 1068.38 1514.65 1053.17 1524.81 1053.26 1523.98 1053.25 1523.71 1053.58 1522.84 1054.8 1519.58 1057.26 1517.32 1060.32 1515.81 1060.55 1515.7 1060.78 1515.59 1061.01 1515.49 1051.52 1508.79 1044.88 1517.08 1035.44 1516.77 1034.91 1516.76 1034.37 1516.7 1033.84 1516.67z"></path><path fill="#2582cd" d="M 1119.09 1272.46 C 1123.59 1284.39 1119.32 1332.01 1121.91 1335.59 L 1122.41 1332.24 C 1124.64 1343.03 1123.56 1355.18 1122.54 1366.1 L 1122.18 1363.85 C 1121.18 1380.94 1121.7 1400.72 1116.46 1417.02 L 1114.04 1418.49 C 1122.62 1370.93 1119.13 1320.66 1119.09 1272.46 z"></path><path fill="#fede88" d="M 1073.59 497.504 C 1073.98 497.055 1074.36 496.611 1074.73 496.151 C 1076.83 493.53 1078.11 491.155 1081.41 490.053 C 1089 492.594 1097.77 505.697 1103.64 511.462 C 1114.12 521.747 1130.35 533.444 1144.66 537.292 C 1162.56 542.108 1188.21 539.133 1206.96 539.2 C 1256.18 539.66 1305.39 539.588 1354.61 538.986 C 1373.48 536.199 1434.6 535.958 1453.04 539.393 C 1468.24 542.222 1480.86 547.117 1494.98 553.429 C 1500.07 555.705 1506.01 559.769 1511.44 560.904 C 1514.96 561.641 1519.05 561.132 1522.58 560.553 C 1532.24 565.955 1543.81 575.89 1546.44 587.211 C 1546.57 587.768 1546.69 589.119 1546.77 589.679 C 1547.97 598.196 1558.94 612.623 1563 621.411 C 1568.22 632.727 1582.86 680.864 1578.31 691.71 C 1578.17 684.077 1574.92 667.135 1571.92 659.965 C 1571.75 659.545 1571.58 659.121 1571.4 658.703 C 1571.3 658.452 1571.18 658.206 1571.06 657.958 C 1570.77 658.771 1570.53 659.58 1570.03 660.309 C 1567.58 663.891 1562.56 664.809 1558.62 665.055 C 1552.48 643.858 1540.24 626.255 1526.67 609.265 C 1508.36 592.322 1490.64 578.666 1466.53 570.653 C 1426.73 557.43 1381.73 561.038 1340.25 561.001 C 1292.53 560.958 1244.82 562.313 1197.09 561.726 C 1170.36 561.398 1140.47 562.601 1116.06 550.302 C 1093.66 539.017 1081.2 520.804 1073.59 497.504 z"></path><path fill="#fece58" d="M 1354.61 538.986 C 1373.48 536.199 1434.6 535.958 1453.04 539.393 C 1468.24 542.222 1480.86 547.117 1494.98 553.429 C 1500.07 555.705 1506.01 559.769 1511.44 560.904 C 1514.96 561.641 1519.05 561.132 1522.58 560.553 C 1532.24 565.955 1543.81 575.89 1546.44 587.211 C 1546.57 587.768 1546.69 589.119 1546.77 589.679 C 1547.97 598.196 1558.94 612.623 1563 621.411 C 1568.22 632.727 1582.86 680.864 1578.31 691.71 C 1578.17 684.077 1574.92 667.135 1571.92 659.965 C 1571.75 659.545 1571.58 659.121 1571.4 658.703 C 1571.3 658.452 1571.18 658.206 1571.06 657.958 C 1567.2 639.149 1559.8 612.152 1546.6 597.893 C 1543.34 592.694 1539.01 587.282 1534.85 582.779 C 1523.07 570.052 1508.31 560.933 1492.41 554.267 C 1444.02 533.988 1404.86 541.252 1354.61 538.986 z"></path><path fill="url(#b)" d="M 800.67 29.9459 C 823.52 27.1472 848.125 28.7904 871.131 28.8211 C 895.564 28.8537 919.753 28.831 944.158 30.1515 C 952.065 30.5793 960.485 30.4083 968.226 32.0659 C 985.579 35.782 1012.63 47.809 1026.49 58.4432 C 1034.13 64.3067 1043.4 71.0934 1049.72 78.2218 C 1053.91 82.954 1056.98 89.013 1060.19 94.4355 C 1074.72 118.924 1081.03 141.875 1084.44 169.986 C 1087.26 193.22 1087.61 216.72 1087.55 240.103 C 1087.52 251.747 1085.06 266.475 1087.68 277.681 L 1086.17 279.584 C 1085.26 272.427 1085.83 264.787 1085.9 257.556 C 1086.1 235.732 1088.29 196.854 1082.24 177.009 C 1082.18 177.286 1082.16 177.574 1082.06 177.842 C 1081.14 180.461 1076.99 184.669 1074.44 185.68 C 1072.76 184.765 1071.37 183.895 1069.46 183.58 C 1067.76 190.181 1070.52 198.502 1070.3 205.415 C 1070.17 209.678 1069.27 214.094 1068.96 218.404 L 1067.67 218.622 C 1065.66 215.216 1068.02 202.183 1067.95 197.525 C 1067.69 182.008 1064.87 166.64 1059.61 152.039 C 1049.98 124.704 1035.33 100.779 1012.21 82.7969 C 964.004 45.2989 901.396 49.8571 843.702 50.2105 C 806.449 50.4387 767.581 49.3097 730.578 54.0745 C 722.789 55.0775 689.872 62.8716 689.27 62.5839 C 695.496 56.643 708.963 54.6803 717.538 53.5435 C 718.029 53.4785 718.52 53.4247 719.011 53.3652 L 717.331 53.1222 C 716.773 50.7352 715.676 49.0377 714.548 46.9122 C 712.777 43.5751 716.657 40.6726 717.736 37.3122 C 711.255 35.4995 704.365 40.4068 698.209 41.9556 C 695.785 42.5655 692.831 42.6174 690.547 43.5109 C 685.549 45.4669 681.364 48.9256 675.973 49.8725 L 676.067 49.0609 C 714.087 28.8695 758.714 30.15 800.67 29.9459 z"></path><path fill="#fece58" d="M800.67 29.9459C823.52 27.1472 848.125 28.7904 871.131 28.8211 895.564 28.8537 919.753 28.831 944.158 30.1515 952.065 30.5793 960.485 30.4083 968.226 32.0659 985.579 35.782 1012.63 47.809 1026.49 58.4432 1034.13 64.3067 1043.4 71.0934 1049.72 78.2218 1053.91 82.954 1056.98 89.013 1060.19 94.4355 1074.72 118.924 1081.03 141.875 1084.44 169.986 1087.26 193.22 1087.61 216.72 1087.55 240.103 1087.52 251.747 1085.06 266.475 1087.68 277.681L1086.17 279.584C1085.26 272.427 1085.83 264.787 1085.9 257.556 1086.1 235.732 1088.29 196.854 1082.24 177.009 1077.09 139.744 1072.13 109.495 1046.2 79.982 984.882 10.1829 882.309 35.5598 800.67 29.9459zM296.837 541.465C333.875 540.401 371.175 541.648 408.252 541.594 437.122 541.552 467.355 539.594 496.079 542.421 505.393 543.338 513.858 545.338 522.615 548.576 516.493 549.033 504.912 550.479 499.661 547.181 498.205 546.266 497.635 545.809 495.809 545.766L495.888 546.81C498.483 548.012 501.009 549.121 503.338 550.794 504.63 553.204 504.897 555.025 505.134 557.747L505.213 558.741C511.075 557.81 516.778 557.643 522.707 557.58 514.901 563 417.279 562.966 403.345 562.965 343.703 562.958 282.692 559.821 223.4 566.529L222.776 565.889 220.2 566.568C223.715 566.134 226.517 564.36 230.112 563.858 238.06 562.747 264.321 563.691 269 559.91 267.253 557.456 264.616 555.685 264.634 552.667 268.079 545.621 270.51 547.288 276.003 544.195 256.504 543.897 233.938 545.668 215.128 550.503 224.866 541.733 281.431 541.86 296.837 541.465z"></path><path fill="url(#c)" d="M 534.804 1269 C 538.156 1282.07 535.861 1309.86 535.668 1324.49 C 535.697 1357.67 532.94 1396.52 544.007 1428.41 L 545.177 1423.08 C 544.977 1429.95 552.438 1445.86 555.689 1452.4 C 559.612 1454.1 564.414 1452.84 568.205 1454.64 C 576.882 1458.76 627.861 1496.59 631.246 1503.04 C 639.122 1517.11 677.826 1530.85 693.749 1535.3 C 746.394 1550 879.077 1548.82 935.416 1543.18 C 941.825 1542.54 956.386 1542.19 961.579 1538.95 C 962.142 1538.6 962.12 1538.54 962.426 1538.07 C 973.302 1533.84 985.663 1531.83 996.933 1528.56 C 1009.36 1524.96 1021.38 1520.12 1033.84 1516.67 C 1034.37 1516.7 1034.91 1516.76 1035.44 1516.77 C 1044.88 1517.08 1051.52 1508.79 1061.01 1515.49 C 1060.78 1515.59 1060.55 1515.7 1060.32 1515.81 C 1057.26 1517.32 1054.8 1519.58 1053.58 1522.84 C 1053.25 1523.71 1053.26 1523.98 1053.17 1524.81 L 1052.79 1526.34 C 1050.74 1534.27 1035.66 1542.7 1028.88 1546.7 C 1013.96 1555.48 997.929 1562.81 982.195 1570 C 959.678 1580.78 937.29 1591.82 915.034 1603.12 C 907.803 1606.77 898.363 1610.28 892.048 1615.08 C 880.575 1623.81 857.951 1649.27 853.415 1663.01 C 851.226 1669.64 849.758 1676.68 848.093 1683.47 L 848.143 1681.59 C 843.253 1704.23 842.825 1729.74 842.295 1752.9 C 842.114 1760.8 843.811 1773.1 841.872 1780.38 L 840.821 1780.07 C 840.114 1777.25 839.564 1774.44 839.047 1771.59 L 838.743 1780.13 C 838.99 1784.74 839.969 1790.23 838.241 1794.58 L 836.665 1795.11 C 834.826 1793.88 833.614 1792.73 832.167 1791.1 L 831.975 1792.52 L 831.261 1792.84 L 831.297 1793.96 C 829.717 1792.01 832.205 1789.38 829.563 1787.96 C 828.331 1789.39 828.373 1790.72 828.175 1792.54 C 827.539 1793.38 827.035 1794.22 826.167 1794.84 C 828.437 1799.81 835.663 1803.59 839.824 1807.25 L 840.79 1809.87 C 841.104 1809.75 841.399 1809.56 841.731 1809.51 C 847.292 1808.66 868.274 1809.75 872.265 1812.53 C 871.072 1814.66 870.312 1815.29 867.894 1815.92 C 863.77 1817 858.742 1816.51 854.826 1818 C 855.884 1818.97 856.979 1819.86 858.091 1820.77 C 872.258 1820.8 875.181 1816.55 885.653 1808.9 C 881.897 1814.71 877.794 1822.34 872.32 1826.73 C 859.12 1837.08 853.566 1839.56 836.195 1838.94 C 821.904 1838.43 810.375 1833.9 800.566 1823.36 C 794.561 1831.97 779.527 1837.7 769.518 1839.44 C 769.269 1839.48 769.018 1839.52 768.768 1839.55 C 760.738 1841.86 751.639 1845.29 747.37 1853.07 C 746.205 1855.2 745.403 1857.69 744.572 1859.96 C 744.226 1860.82 743.847 1861.66 743.494 1862.51 C 743.282 1863.02 743.109 1863.55 742.886 1864.05 C 740.612 1869.2 732.792 1873.99 727.736 1875.6 C 723.858 1876.84 719.921 1876.88 715.892 1876.83 C 724.06 1879.34 732.441 1881.1 740.929 1882.09 C 740.725 1899.18 739.237 1917.62 741.17 1934.55 C 741.463 1948.85 743.364 1965.76 740.06 1979.65 C 728.058 1972.43 706.061 1965.38 692.31 1960.78 C 663.999 1951.3 632.918 1943 603.272 1939.03 C 525.628 1928.64 431.261 1937.34 353.467 1946.76 C 337.374 1948.7 321.17 1950 305.112 1952.15 C 276.117 1956.02 246.719 1961.3 217.992 1966.74 C 197.193 1970.68 176.011 1975.39 155.408 1980.3 C 129.136 1986.57 105.666 1994.86 78.0874 1993.13 C 55.6205 1991.72 35.5382 1984.8 20.463 1967.65 C 19.5049 1966.65 18.5907 1965.68 17.7765 1964.56 C -1.43101 1938.04 12.5797 1888.11 17.9617 1858.48 C 18.1489 1858.33 18.3378 1858.19 18.5232 1858.04 C 20.3855 1856.53 21.38 1855.32 22.5623 1853.24 L 24.7672 1853.01 C 27.6484 1857.21 24.6501 1874.64 30.8458 1875.21 C 34.5656 1875.55 38.295 1873.1 42.4468 1873.45 C 54.586 1874.46 68.8855 1879.95 78.6499 1887.26 C 82.118 1889.85 84.7264 1893.36 88.3246 1895.8 C 94.3 1899.25 100.518 1900.87 107.386 1900.96 C 120.116 1901.12 132.748 1896.85 145.079 1894.17 C 166.782 1889.44 189.089 1884.15 210.993 1880.64 C 202.705 1879.64 192.168 1882.63 183.979 1884.3 C 162.385 1888.71 133.451 1896.99 111.918 1897.54 C 100.912 1897.83 91.9416 1894.8 83.8447 1887.21 C 81.6569 1875.5 81.7623 1863.76 82.0201 1851.9 L 80.8744 1786.41 C 79.7448 1778.43 80.052 1770.03 79.8798 1761.97 C 70.6799 1764.28 63.3164 1764.05 54.6396 1759.7 C 51.1393 1757.64 47.8943 1756.41 44.0454 1755.18 C 51.1805 1754.06 62.284 1758.66 69.9681 1759.34 L 70.8088 1758.23 C 64.0681 1753.76 42.425 1754.14 38.5052 1750.85 C 32.5372 1745.85 26.1963 1737.87 24.2485 1730.17 C 22.7842 1724.38 24.7369 1714.49 25.4232 1708.5 C 28.0863 1685.24 31.8878 1662.06 35.5255 1638.94 C 38.061 1622.83 42.646 1605.24 40.9953 1588.91 C 41.6549 1568.22 49.6392 1536.28 53.2304 1514.67 L 66.8278 1430.29 C 68.8292 1418.31 70.3417 1406.17 73.0085 1394.32 C 74.5708 1387.39 76.8038 1380.85 80.1935 1374.58 C 87.9339 1360.27 100.13 1352.49 114.535 1345.6 C 132.831 1336.84 154.198 1332.47 173.699 1326.89 C 242.879 1307.1 312.13 1291.36 383.333 1280.87 C 399.791 1278.45 416.346 1275.49 432.9 1273.89 C 453.699 1271.88 475.285 1271.06 496.18 1270.45 C 504.745 1270.2 526.291 1271.97 533.424 1269.52 C 533.889 1269.36 534.344 1269.18 534.804 1269 z"></path><path fill="url(#d)" d="M 79.8798 1761.97 C 82.2948 1759.55 109.111 1753.03 114.673 1751.11 C 181.517 1727.44 250.236 1709.45 320.1 1697.32 C 336.287 1694.4 352.478 1690.9 368.804 1688.91 C 401.227 1684.97 434.56 1683.58 467.233 1683.47 C 500.989 1683.35 535.66 1684.98 568.99 1690.61 C 622.391 1699.63 684.247 1721.63 729.306 1752.07 C 743.374 1761.57 755.922 1772.52 768.154 1784.25 C 780.87 1795.08 790.689 1809.98 800.566 1823.36 C 794.561 1831.97 779.527 1837.7 769.518 1839.44 C 769.269 1839.48 769.018 1839.52 768.768 1839.55 C 760.738 1841.86 751.639 1845.29 747.37 1853.07 C 746.205 1855.2 745.403 1857.69 744.572 1859.96 C 744.226 1860.82 743.847 1861.66 743.494 1862.51 C 743.282 1863.02 743.109 1863.55 742.886 1864.05 C 740.612 1869.2 732.792 1873.99 727.736 1875.6 C 723.858 1876.84 719.921 1876.88 715.892 1876.83 C 724.06 1879.34 732.441 1881.1 740.929 1882.09 C 740.725 1899.18 739.237 1917.62 741.17 1934.55 C 741.463 1948.85 743.364 1965.76 740.06 1979.65 C 728.058 1972.43 706.061 1965.38 692.31 1960.78 C 663.999 1951.3 632.918 1943 603.272 1939.03 C 525.628 1928.64 431.261 1937.34 353.467 1946.76 C 337.374 1948.7 321.17 1950 305.112 1952.15 C 276.117 1956.02 246.719 1961.3 217.992 1966.74 C 197.193 1970.68 176.011 1975.39 155.408 1980.3 C 129.136 1986.57 105.666 1994.86 78.0874 1993.13 C 55.6205 1991.72 35.5382 1984.8 20.463 1967.65 C 19.5049 1966.65 18.5907 1965.68 17.7765 1964.56 C -1.43101 1938.04 12.5797 1888.11 17.9617 1858.48 C 18.1489 1858.33 18.3378 1858.19 18.5232 1858.04 C 20.3855 1856.53 21.38 1855.32 22.5623 1853.24 L 24.7672 1853.01 C 27.6484 1857.21 24.6501 1874.64 30.8458 1875.21 C 34.5656 1875.55 38.295 1873.1 42.4468 1873.45 C 54.586 1874.46 68.8855 1879.95 78.6499 1887.26 C 82.118 1889.85 84.7264 1893.36 88.3246 1895.8 C 94.3 1899.25 100.518 1900.87 107.386 1900.96 C 120.116 1901.12 132.748 1896.85 145.079 1894.17 C 166.782 1889.44 189.089 1884.15 210.993 1880.64 C 202.705 1879.64 192.168 1882.63 183.979 1884.3 C 162.385 1888.71 133.451 1896.99 111.918 1897.54 C 100.912 1897.83 91.9416 1894.8 83.8447 1887.21 C 81.6569 1875.5 81.7623 1863.76 82.0201 1851.9 L 80.8744 1786.41 C 79.7448 1778.43 80.052 1770.03 79.8798 1761.97 z"></path><path fill="url(#e)" d="M 17.9617 1858.48 C 18.1489 1858.33 18.3378 1858.19 18.5232 1858.04 C 20.3855 1856.53 21.38 1855.32 22.5623 1853.24 L 24.7672 1853.01 C 27.6484 1857.21 24.6501 1874.64 30.8458 1875.21 C 34.5656 1875.55 38.295 1873.1 42.4468 1873.45 C 54.586 1874.46 68.8855 1879.95 78.6499 1887.26 C 82.118 1889.85 84.7264 1893.36 88.3246 1895.8 C 94.3 1899.25 100.518 1900.87 107.386 1900.96 C 120.116 1901.12 132.748 1896.85 145.079 1894.17 C 166.782 1889.44 189.089 1884.15 210.993 1880.64 C 242.056 1878.62 273.226 1870.06 304.306 1866.61 C 344.928 1862.11 385.764 1857.08 426.546 1854.45 C 473.701 1851.4 526.595 1851.56 573.78 1854.93 C 602.203 1856.97 630.46 1861.37 658.671 1865.31 L 665.345 1866.2 C 673.369 1863.63 705.958 1874.54 715.892 1876.83 C 724.06 1879.34 732.441 1881.1 740.929 1882.09 C 740.725 1899.18 739.237 1917.62 741.17 1934.55 C 741.463 1948.85 743.364 1965.76 740.06 1979.65 C 728.058 1972.43 706.061 1965.38 692.31 1960.78 C 663.999 1951.3 632.918 1943 603.272 1939.03 C 525.628 1928.64 431.261 1937.34 353.467 1946.76 C 337.374 1948.7 321.17 1950 305.112 1952.15 C 276.117 1956.02 246.719 1961.3 217.992 1966.74 C 197.193 1970.68 176.011 1975.39 155.408 1980.3 C 129.136 1986.57 105.666 1994.86 78.0874 1993.13 C 55.6205 1991.72 35.5382 1984.8 20.463 1967.65 C 19.5049 1966.65 18.5907 1965.68 17.7765 1964.56 C -1.43101 1938.04 12.5797 1888.11 17.9617 1858.48 z"></path><path fill="#3166a0" d="M 17.9617 1858.48 C 18.1489 1858.33 18.3378 1858.19 18.5232 1858.04 C 20.3855 1856.53 21.38 1855.32 22.5623 1853.24 L 24.7672 1853.01 C 27.6484 1857.21 24.6501 1874.64 30.8458 1875.21 C 34.5656 1875.55 38.295 1873.1 42.4468 1873.45 C 54.586 1874.46 68.8855 1879.95 78.6499 1887.26 C 82.118 1889.85 84.7264 1893.36 88.3246 1895.8 C 76.4234 1896.4 61.9743 1894.48 50.6842 1890.52 C 50.9619 1890.18 51.2533 1889.86 51.5174 1889.51 C 51.7198 1889.24 51.8942 1888.96 52.0826 1888.68 C 48.9669 1886.94 44.9493 1888.53 41.1979 1887.06 C 42.8111 1886.24 44.029 1886.15 45.8109 1885.86 C 44.6548 1884.19 42.9053 1883.72 40.9145 1883.32 C 35.75 1882.29 24.8194 1884.36 20.6504 1887.42 C 18.5264 1888.98 16.5629 1890.91 14.628 1892.7 C 10.2251 1915.24 5.58571 1941.99 19.3286 1962.41 C 20.3321 1963.9 21.346 1965.19 22.565 1966.51 C 25.8401 1970.03 29.0741 1973.31 32.783 1976.39 C 42.4033 1976.67 52.3999 1975.08 62.0469 1974.53 C 74.3962 1973.83 86.9056 1973.88 99.1976 1972.53 C 117.696 1970.48 135.804 1966.46 154.062 1963.03 L 218.907 1950.91 C 245.949 1945.84 273.182 1942.74 300.14 1937 C 290.84 1937.03 281.226 1937.57 271.983 1936.53 C 279.886 1934.17 294.578 1933.36 302.627 1935.61 C 308.976 1937.39 318.004 1932.52 324.887 1932.3 C 325.193 1932.29 325.499 1932.3 325.804 1932.29 C 320.276 1930.78 311.351 1931.77 305.411 1931.5 C 320.312 1926.84 336.85 1925.63 352.328 1923.84 C 399.449 1918.4 446.46 1916.29 493.847 1915.1 C 512.545 1914.64 530.842 1913.32 549.619 1913.73 C 573.678 1914.26 657.543 1921.4 675.453 1931.09 C 678.7 1932.85 680.639 1933.87 684.319 1934.17 C 698.327 1935.32 716.843 1936.75 728.143 1926.78 C 732.199 1923.19 733.533 1921.13 733.843 1915.9 C 731.318 1903.74 720.72 1898.78 715.804 1888.76 C 717.443 1888.73 718.421 1888.27 719.886 1887.57 L 720.059 1885.5 C 718.364 1883.38 717.676 1882.61 714.972 1881.77 C 712.038 1882.35 709.925 1882.94 707.064 1881.86 L 709.271 1880.86 C 701.094 1875.65 666.708 1867.28 665.345 1866.2 C 673.369 1863.63 705.958 1874.54 715.892 1876.83 C 724.06 1879.34 732.441 1881.1 740.929 1882.09 C 740.725 1899.18 739.237 1917.62 741.17 1934.55 C 741.463 1948.85 743.364 1965.76 740.06 1979.65 C 728.058 1972.43 706.061 1965.38 692.31 1960.78 C 663.999 1951.3 632.918 1943 603.272 1939.03 C 525.628 1928.64 431.261 1937.34 353.467 1946.76 C 337.374 1948.7 321.17 1950 305.112 1952.15 C 276.117 1956.02 246.719 1961.3 217.992 1966.74 C 197.193 1970.68 176.011 1975.39 155.408 1980.3 C 129.136 1986.57 105.666 1994.86 78.0874 1993.13 C 55.6205 1991.72 35.5382 1984.8 20.463 1967.65 C 19.5049 1966.65 18.5907 1965.68 17.7765 1964.56 C -1.43101 1938.04 12.5797 1888.11 17.9617 1858.48 z"></path><path fill="#4db3f8" d="M 637.787 1892.23 C 641.43 1893.39 645.123 1894.87 648.97 1894.96 L 649.122 1894.11 L 643.496 1892.51 L 643.188 1891.38 L 642.947 1891.61 L 643.39 1890.05 C 634.807 1889.91 618.419 1885.5 608.623 1884.07 C 593.177 1881.83 577.236 1881.11 561.665 1879.87 C 550.135 1878.96 513.006 1879.46 506.529 1877.67 C 507.377 1877.45 507.63 1877.36 508.615 1877.28 C 513.271 1876.89 518.289 1877.49 523.005 1877.41 C 573.027 1876.62 621.847 1881.71 670.773 1891.9 C 688.063 1895.5 705.851 1899.1 721.757 1907.05 C 726.302 1909.32 730.036 1912.58 733.843 1915.9 C 733.287 1917.39 732.541 1918.15 731.43 1919.26 C 728.977 1919.8 727.201 1919.83 724.713 1919.4 C 716.987 1918.08 709.132 1914.87 701.564 1912.68 C 687.708 1908.64 673.708 1905.12 659.591 1902.11 C 624.856 1894.53 589.183 1888.67 553.661 1886.33 C 532.808 1884.96 511.817 1885.15 490.931 1884.38 C 497.966 1882.34 507.676 1883.3 515.078 1883.32 C 556.584 1883.45 596.6 1887.96 637.787 1892.23 z"></path><path fill="url(#f)" d="M 79.8798 1761.97 C 82.2948 1759.55 109.111 1753.03 114.673 1751.11 C 181.517 1727.44 250.236 1709.45 320.1 1697.32 C 336.287 1694.4 352.478 1690.9 368.804 1688.91 C 401.227 1684.97 434.56 1683.58 467.233 1683.47 C 500.989 1683.35 535.66 1684.98 568.99 1690.61 C 622.391 1699.63 684.247 1721.63 729.306 1752.07 C 743.374 1761.57 755.922 1772.52 768.154 1784.25 C 780.87 1795.08 790.689 1809.98 800.566 1823.36 C 794.561 1831.97 779.527 1837.7 769.518 1839.44 C 769.269 1839.48 769.018 1839.52 768.768 1839.55 C 760.738 1841.86 751.639 1845.29 747.37 1853.07 C 746.205 1855.2 745.403 1857.69 744.572 1859.96 C 744.226 1860.82 743.847 1861.66 743.494 1862.51 C 743.282 1863.02 743.109 1863.55 742.886 1864.05 C 740.612 1869.2 732.792 1873.99 727.736 1875.6 C 723.858 1876.84 719.921 1876.88 715.892 1876.83 C 705.958 1874.54 673.369 1863.63 665.345 1866.2 L 658.671 1865.31 C 672.732 1863.32 690.129 1866.96 703.527 1871.28 C 704.611 1870.85 705.082 1870.82 705.846 1869.91 C 719.792 1864.96 723.235 1869.79 735.773 1857.25 C 739.168 1844.38 745.19 1828.11 742.855 1814.78 C 739.061 1793.13 719.464 1774.79 702.598 1762.45 C 689.532 1752.89 675.464 1745.47 661.08 1738.14 C 589.304 1701.6 513.519 1691.61 433.757 1694.38 C 418.256 1694.91 402.591 1695.15 387.15 1696.69 C 357.299 1699.66 328.054 1706.08 298.453 1710.57 L 299.634 1713.46 C 285.384 1724.64 209.592 1725 201.125 1733.74 C 200.048 1734.85 200.898 1734.07 199.504 1735.3 C 197.589 1736.98 197.261 1737.57 194.726 1737.93 L 195.697 1735.5 L 194.453 1734.54 C 185.498 1735.4 176.735 1739.62 168.414 1742.9 C 172.21 1742.06 176.787 1741.49 180.299 1739.84 C 180.668 1739.67 181.031 1739.48 181.398 1739.3 L 182.863 1739.93 L 182.272 1741.51 C 173.426 1746.74 161.458 1746.83 152.073 1750.83 C 144.089 1754.23 135.255 1756.29 126.765 1757.92 L 130.254 1756.57 C 114.726 1757.66 100.936 1765.88 84.5603 1764.16 L 82.978 1763.99 C 81.0884 1769.34 81.7873 1780.09 80.8744 1786.41 C 79.7448 1778.43 80.052 1770.03 79.8798 1761.97 z"></path><path fill="#744e41" d="M 768.154 1784.25 C 780.87 1795.08 790.689 1809.98 800.566 1823.36 C 794.561 1831.97 779.527 1837.7 769.518 1839.44 C 769.269 1839.48 769.018 1839.52 768.768 1839.55 C 772.328 1837.6 781.802 1832.73 784.511 1830.65 C 785.966 1823.82 772.757 1791.56 768.154 1784.25 z"></path><path fill="#9c979f" d="M 82.0201 1851.9 C 83.6215 1860.03 84.2762 1868 84.9723 1876.23 L 85.959 1876.63 C 86.6508 1873.58 86.8184 1870.07 89.0585 1867.87 C 95.4265 1870.86 98.4181 1878.4 108.457 1882.05 C 123.052 1887.37 144.191 1880.25 149.334 1882.22 C 139.465 1884.79 129.58 1887.3 119.681 1889.76 L 120.168 1889.85 L 116.809 1891.18 C 120.382 1893.64 127.125 1891.78 131.222 1891.03 C 161.593 1885.44 191.536 1878.59 222.052 1873.62 C 231.888 1872.01 241.392 1869.7 251.396 1869.31 C 255.914 1869.13 260.407 1865.97 265.28 1865.41 L 358.813 1854.56 C 375.3 1852.78 391.661 1852.18 408.171 1851.04 C 417.852 1850.38 427.356 1848.4 437.077 1847.84 C 481.049 1845.31 525.112 1846.48 569.017 1849.24 C 579.969 1849.93 591.053 1850.02 601.967 1851.1 C 615.529 1852.46 628.972 1855.68 642.467 1857.61 C 664.047 1860.7 685.163 1862.46 705.846 1869.91 C 705.082 1870.82 704.611 1870.85 703.527 1871.28 C 690.129 1866.96 672.732 1863.32 658.671 1865.31 C 630.46 1861.37 602.203 1856.97 573.78 1854.93 C 526.595 1851.56 473.701 1851.4 426.546 1854.45 C 385.764 1857.08 344.928 1862.11 304.306 1866.61 C 273.226 1870.06 242.056 1878.62 210.993 1880.64 C 202.705 1879.64 192.168 1882.63 183.979 1884.3 C 162.385 1888.71 133.451 1896.99 111.918 1897.54 C 100.912 1897.83 91.9416 1894.8 83.8447 1887.21 C 81.6569 1875.5 81.7623 1863.76 82.0201 1851.9 z"></path><path fill="url(#g)" d="M 545.177 1423.08 C 544.977 1429.95 552.438 1445.86 555.689 1452.4 C 559.612 1454.1 564.414 1452.84 568.205 1454.64 C 576.882 1458.76 627.861 1496.59 631.246 1503.04 C 639.122 1517.11 677.826 1530.85 693.749 1535.3 C 746.394 1550 879.077 1548.82 935.416 1543.18 C 941.825 1542.54 956.386 1542.19 961.579 1538.95 C 962.142 1538.6 962.12 1538.54 962.426 1538.07 C 973.302 1533.84 985.663 1531.83 996.933 1528.56 C 1009.36 1524.96 1021.38 1520.12 1033.84 1516.67 C 1034.37 1516.7 1034.91 1516.76 1035.44 1516.77 C 1044.88 1517.08 1051.52 1508.79 1061.01 1515.49 C 1060.78 1515.59 1060.55 1515.7 1060.32 1515.81 C 1057.26 1517.32 1054.8 1519.58 1053.58 1522.84 C 1053.25 1523.71 1053.26 1523.98 1053.17 1524.81 L 1052.79 1526.34 C 1050.74 1534.27 1035.66 1542.7 1028.88 1546.7 C 1013.96 1555.48 997.929 1562.81 982.195 1570 C 959.678 1580.78 937.29 1591.82 915.034 1603.12 C 907.803 1606.77 898.363 1610.28 892.048 1615.08 C 880.575 1623.81 857.951 1649.27 853.415 1663.01 C 851.226 1669.64 849.758 1676.68 848.093 1683.47 L 848.143 1681.59 C 843.253 1704.23 842.825 1729.74 842.295 1752.9 C 842.114 1760.8 843.811 1773.1 841.872 1780.38 L 840.821 1780.07 C 840.114 1777.25 839.564 1774.44 839.047 1771.59 L 838.112 1762.12 L 837.892 1696.86 C 837.842 1685.44 839.102 1672.1 836.75 1660.94 C 833.931 1647.56 818.508 1636.74 807.873 1629.74 C 792.235 1614.36 675.333 1574.19 648.478 1565.89 C 628.692 1562.88 565.971 1537.57 547.288 1528.63 C 543.54 1525.2 539.513 1522.38 535.87 1518.71 C 550.491 1529.48 576.256 1541.2 594.248 1545.27 L 594.385 1544.3 C 591.846 1542.59 589.883 1540.84 588.124 1538.3 C 585.086 1533.92 581.723 1526.6 583.074 1521.12 C 583.692 1518.61 584.905 1517.88 586.952 1516.51 C 586.553 1513.91 586.555 1512.14 587.098 1509.56 C 587.152 1509.31 587.211 1509.06 587.267 1508.8 C 580.013 1500.89 573.388 1492.42 567.452 1483.48 C 560.524 1472.96 542.314 1443 544.656 1431.46 L 544.007 1428.41 L 545.177 1423.08 z"></path><path fill="url(#h)" d="M 648.478 1565.89 C 662.799 1564.43 673.149 1573.17 681.321 1572.25 L 674.503 1569.47 C 676.352 1569.04 676.627 1569.15 678.407 1569.48 C 682.126 1570.17 685.818 1569.92 689.557 1570.35 C 703.879 1571.97 716.829 1573.77 731.327 1572.51 L 731.692 1571.12 C 785.11 1572.66 838.508 1574.18 891.961 1572.46 C 910.822 1571.85 929.503 1568.78 948.223 1568.11 L 948.959 1568.08 C 957.136 1573.41 972.247 1567.97 982.195 1570 C 959.678 1580.78 937.29 1591.82 915.034 1603.12 C 907.803 1606.77 898.363 1610.28 892.048 1615.08 C 880.575 1623.81 857.951 1649.27 853.415 1663.01 C 851.226 1669.64 849.758 1676.68 848.093 1683.47 L 848.143 1681.59 C 843.253 1704.23 842.825 1729.74 842.295 1752.9 C 842.114 1760.8 843.811 1773.1 841.872 1780.38 L 840.821 1780.07 C 840.114 1777.25 839.564 1774.44 839.047 1771.59 L 838.112 1762.12 L 837.892 1696.86 C 837.842 1685.44 839.102 1672.1 836.75 1660.94 C 833.931 1647.56 818.508 1636.74 807.873 1629.74 C 792.235 1614.36 675.333 1574.19 648.478 1565.89 z"></path><path fill="url(#i)" d="M 544.656 1431.46 C 548.534 1441.53 552.143 1451.94 557.009 1461.58 C 576.887 1501.35 609.938 1533 650.532 1551.14 C 676.815 1562.83 703.331 1567.6 731.692 1571.12 L 731.327 1572.51 C 716.829 1573.77 703.879 1571.97 689.557 1570.35 C 685.818 1569.92 682.126 1570.17 678.407 1569.48 C 676.627 1569.15 676.352 1569.04 674.503 1569.47 L 681.321 1572.25 C 673.149 1573.17 662.799 1564.43 648.478 1565.89 C 628.692 1562.88 565.971 1537.57 547.288 1528.63 C 543.54 1525.2 539.513 1522.38 535.87 1518.71 C 550.491 1529.48 576.256 1541.2 594.248 1545.27 L 594.385 1544.3 C 591.846 1542.59 589.883 1540.84 588.124 1538.3 C 585.086 1533.92 581.723 1526.6 583.074 1521.12 C 583.692 1518.61 584.905 1517.88 586.952 1516.51 C 586.553 1513.91 586.555 1512.14 587.098 1509.56 C 587.152 1509.31 587.211 1509.06 587.267 1508.8 C 580.013 1500.89 573.388 1492.42 567.452 1483.48 C 560.524 1472.96 542.314 1443 544.656 1431.46 z"></path><path fill="#000000" d="M 1052.79 1526.34 C 1050.74 1534.27 1035.66 1542.7 1028.88 1546.7 C 1013.96 1555.48 997.929 1562.81 982.195 1570 C 972.247 1567.97 957.136 1573.41 948.959 1568.08 C 993.462 1559.45 1015.45 1553.02 1052.79 1526.34 z"></path><path fill="#2c588e" d="M495.652 1501.9C494.439 1500.04 494.746 1499.96 495.202 1497.76 489.448 1489.62 480.27 1482.28 472.791 1475.74 460.389 1464.89 446.195 1453.19 430.783 1446.99 425.557 1444.89 419.9 1443.75 414.576 1441.9 408.167 1439.66 401.859 1437.04 395.27 1435.35 382.638 1432.12 369.621 1430.27 356.988 1426.69 349.75 1424.65 341.28 1421.22 337.484 1414.41 337.415 1411.59 337.478 1410.39 339.212 1408.1 354.631 1387.72 431.033 1370.25 456.518 1365.86 466.995 1364.06 477.787 1363.8 488.21 1361.94 496.345 1360.49 505.566 1361.28 513.851 1361.29 523.183 1361.29 524.908 1361.93 531.369 1368.41 535.534 1359.05 535.206 1335.3 535.668 1324.49 535.697 1357.67 532.94 1396.52 544.007 1428.41L544.656 1431.46C542.314 1443 560.524 1472.96 567.452 1483.48 573.388 1492.42 580.013 1500.89 587.267 1508.8 587.211 1509.06 587.152 1509.31 587.098 1509.56 586.555 1512.14 586.553 1513.91 586.952 1516.51 584.905 1517.88 583.692 1518.61 583.074 1521.12 581.723 1526.6 585.086 1533.92 588.124 1538.3 589.883 1540.84 591.846 1542.59 594.385 1544.3L594.248 1545.27C576.256 1541.2 550.491 1529.48 535.87 1518.71 539.513 1522.38 543.54 1525.2 547.288 1528.63 529.872 1522.87 512.765 1504.34 495.652 1501.9zM54.6396 1759.7C61.9 1759.44 70.8166 1762.56 77.6425 1759.83 87.1794 1756.01 97.1775 1754.99 106.785 1751.83 132.705 1743.32 158.066 1733.84 184.332 1726.14 209.36 1718.81 234.272 1713.57 259.659 1707.83 266.203 1706.35 270.474 1701.7 276.658 1700.34 299.431 1695.33 323.081 1692.71 346.055 1688.44 362.626 1685.37 378.802 1680.4 395.584 1678.34 405.936 1677.07 416.749 1678.12 427.194 1677.53 440.916 1676.74 454.549 1674.78 468.3 1674.42 497.76 1673.63 526.919 1676.51 556.134 1679.62 569.136 1681 581.892 1681.8 594.805 1684.09 598.123 1686.34 651.015 1700.89 660.861 1704.13 678.426 1709.92 696.858 1717.25 713.34 1725.65 736.813 1737.6 762.311 1755.83 782.02 1773.24 788.119 1778.63 793.361 1785.02 798.792 1791.06 816.635 1810.92 829.262 1813.92 854.826 1818 855.884 1818.97 856.979 1819.86 858.091 1820.77 872.258 1820.8 875.181 1816.55 885.653 1808.9 881.897 1814.71 877.794 1822.34 872.32 1826.73 859.12 1837.08 853.566 1839.56 836.195 1838.94 821.904 1838.43 810.375 1833.9 800.566 1823.36 790.689 1809.98 780.87 1795.08 768.154 1784.25 755.922 1772.52 743.374 1761.57 729.306 1752.07 684.247 1721.63 622.391 1699.63 568.99 1690.61 535.66 1684.98 500.989 1683.35 467.233 1683.47 434.56 1683.58 401.227 1684.97 368.804 1688.91 352.478 1690.9 336.287 1694.4 320.1 1697.32 250.236 1709.45 181.517 1727.44 114.673 1751.11 109.111 1753.03 82.2948 1759.55 79.8798 1761.97 70.6799 1764.28 63.3164 1764.05 54.6396 1759.7z"></path><path fill="#2c588e" d="M 315.899 1675.13 C 340.776 1671.79 365.292 1667.56 390.315 1665.03 C 478.264 1656.13 564.893 1661.66 649.574 1687.58 C 669.461 1693.81 688.882 1701.43 707.691 1710.41 C 715.472 1714.07 728.929 1723.56 736.232 1725.1 C 744.05 1727.37 760.708 1732.3 765.048 1739.58 C 765.876 1740.98 765.568 1741.04 765.283 1742.5 C 762.693 1742.71 756.184 1737.94 753.071 1736.9 C 753.105 1738.8 754.575 1739.79 755.912 1741.04 C 759.357 1744.28 763.761 1746.93 767.684 1749.59 L 768.71 1744.87 C 771.809 1750.88 782.03 1755.67 787.956 1759.28 C 787.911 1756.83 787.793 1754.39 787.659 1751.94 L 788.522 1751.54 C 791.183 1755.12 788.598 1759.88 791.012 1763.44 L 792.007 1763.1 C 792.521 1759.83 792.281 1756.87 792.008 1753.59 L 792.757 1753.07 C 796.485 1758.63 797.563 1766.15 802.115 1770.99 C 802.537 1771.43 802.921 1771.92 803.325 1772.38 L 804.257 1773.44 C 803.852 1773.51 803.445 1773.57 803.041 1773.65 C 801.45 1773.94 802.051 1773.72 800.839 1774.44 L 813.802 1788.07 C 813.86 1787.7 813.912 1787.32 813.976 1786.94 C 814.25 1785.32 814.091 1785.95 814.709 1784.42 C 818.718 1788.65 816.464 1791.01 819.851 1795.64 L 820.975 1795.46 C 821.791 1792.8 822.029 1790.83 821.944 1788.06 C 820.884 1786.07 820.255 1785.78 820.641 1783.48 L 822.541 1783.53 C 825.208 1786.86 822.031 1793.14 825.117 1795.45 L 826.167 1794.84 C 828.437 1799.81 835.663 1803.59 839.824 1807.25 L 840.79 1809.87 C 841.104 1809.75 841.399 1809.56 841.731 1809.51 C 847.292 1808.66 868.274 1809.75 872.265 1812.53 C 871.072 1814.66 870.312 1815.29 867.894 1815.92 C 863.77 1817 858.742 1816.51 854.826 1818 C 829.262 1813.92 816.635 1810.92 798.792 1791.06 C 793.361 1785.02 788.119 1778.63 782.02 1773.24 C 762.311 1755.83 736.813 1737.6 713.34 1725.65 C 696.858 1717.25 678.426 1709.92 660.861 1704.13 C 651.015 1700.89 598.123 1686.34 594.805 1684.09 C 594.648 1684.04 594.488 1683.99 594.333 1683.93 C 585.771 1680.58 575.336 1680.12 566.242 1678.72 C 546.346 1675.65 525.455 1672.15 505.371 1671.11 C 479.194 1669.76 452.753 1671.07 426.545 1670.86 C 413.177 1671.34 399.758 1674.18 386.406 1675.49 C 368.928 1677.21 351.635 1678.66 334.222 1681 C 330.242 1681.54 325.941 1681.25 322.041 1682.08 C 315.829 1683.4 310.265 1687.4 303.857 1688.47 C 296.233 1689.74 282.943 1686.4 276.694 1690.41 L 278.021 1689.11 L 276.923 1691.38 L 277.09 1691.67 L 275.805 1693.25 C 275.427 1693.24 275.049 1693.22 274.671 1693.21 C 261.207 1692.98 205.175 1709.29 188.272 1713.6 C 181.621 1715.3 174.526 1715.83 167.785 1717.27 C 163.958 1718.08 156.065 1721.51 152.764 1720.27 C 156.069 1717.7 159.171 1717.01 163.14 1716.11 L 163.755 1715.22 L 158.44 1716.09 L 157.706 1715.37 C 159.983 1713.14 163.798 1713.67 166.719 1712.6 C 171.001 1711.03 176.489 1705.52 181.197 1705.8 C 182.547 1705.88 184.225 1707.13 185.304 1707.82 C 196.057 1704.74 207.167 1701.59 218.079 1699.19 C 221.514 1698.43 225.249 1699.36 228.583 1698.51 C 231.105 1697.87 244.016 1693.69 245.453 1692.28 L 242.78 1691.5 C 246.463 1689.32 250.661 1686.32 254.745 1685.13 C 260.993 1683.31 267.055 1684.54 273.455 1682.11 C 278.368 1680.25 283.496 1680.44 288.312 1678.03 C 288.238 1677.48 288.09 1676.94 288.09 1676.38 C 288.09 1676.03 288.238 1675.7 288.313 1675.36 C 296.794 1674.96 307.922 1677.32 315.899 1675.13 z"></path><path fill="#3166a0" d="M 426.545 1670.86 C 461.831 1666.12 501.108 1668.33 536.367 1672.42 C 552.551 1674.29 569.035 1675.76 585.06 1678.69 C 651.032 1690.76 716.437 1716.39 769.738 1757.42 C 783.865 1768.3 819.022 1811.52 836.557 1808.71 C 837.953 1808.49 838.752 1808.09 839.824 1807.25 L 840.79 1809.87 C 841.104 1809.75 841.399 1809.56 841.731 1809.51 C 847.292 1808.66 868.274 1809.75 872.265 1812.53 C 871.072 1814.66 870.312 1815.29 867.894 1815.92 C 863.77 1817 858.742 1816.51 854.826 1818 C 829.262 1813.92 816.635 1810.92 798.792 1791.06 C 793.361 1785.02 788.119 1778.63 782.02 1773.24 C 762.311 1755.83 736.813 1737.6 713.34 1725.65 C 696.858 1717.25 678.426 1709.92 660.861 1704.13 C 651.015 1700.89 598.123 1686.34 594.805 1684.09 C 594.648 1684.04 594.488 1683.99 594.333 1683.93 C 585.771 1680.58 575.336 1680.12 566.242 1678.72 C 546.346 1675.65 525.455 1672.15 505.371 1671.11 C 479.194 1669.76 452.753 1671.07 426.545 1670.86 z"></path><path fill="url(#j)" d="M 379.342 1632.05 C 379.647 1632.07 379.952 1632.09 380.257 1632.1 C 388.926 1632.46 397.804 1631.24 406.468 1630.75 C 423.173 1629.79 439.997 1628.89 456.726 1628.56 C 536.513 1627.02 618.235 1636.8 692.867 1665.99 C 711.86 1673.2 730.293 1681.8 748.017 1691.73 C 758.896 1697.75 770.437 1706.08 781.879 1710.66 L 783.125 1711.71 C 791.982 1719.11 801.755 1724.91 810.29 1732.88 C 815.188 1737.45 820.2 1742.4 824.329 1747.69 C 827.248 1751.43 830.059 1757.25 833.521 1760.28 C 834.792 1761.39 836.512 1761.77 838.112 1762.12 L 839.047 1771.59 L 838.743 1780.13 L 837.711 1781.33 L 836.137 1781.12 C 835.574 1779.6 834.956 1778.1 834.285 1776.63 C 829.401 1765.99 820.069 1757.37 811.692 1749.41 C 772.316 1712.01 725.483 1688 674.978 1669.22 C 582.467 1634.83 480.722 1630.2 383.326 1640.19 C 360.544 1642.53 332.68 1644.73 311.619 1654.34 C 305.719 1657.2 278.648 1659.6 271.911 1658.48 L 272.394 1657.06 C 275.445 1655.44 302.984 1650.07 308.659 1649 C 300.658 1648.65 292.59 1649.08 284.612 1648.58 C 271.715 1647.78 248.175 1656.85 239.323 1654.26 L 240.185 1653.12 C 285.836 1641.89 332.413 1634.84 379.342 1632.05 z"></path><path fill="#3ca5f6" d="M 311.619 1654.34 C 332.68 1644.73 360.544 1642.53 383.326 1640.19 C 480.722 1630.2 582.467 1634.83 674.978 1669.22 C 725.483 1688 772.316 1712.01 811.692 1749.41 C 820.069 1757.37 829.401 1765.99 834.285 1776.63 C 834.956 1778.1 835.574 1779.6 836.137 1781.12 L 837.711 1781.33 L 838.743 1780.13 C 838.99 1784.74 839.969 1790.23 838.241 1794.58 L 836.665 1795.11 C 834.826 1793.88 833.614 1792.73 832.167 1791.1 C 831.416 1788.8 830.356 1786.28 830.511 1783.83 C 830.676 1781.24 830.624 1778.7 830.584 1776.1 C 824.959 1768.45 797.29 1743.73 789.569 1738.04 L 790.41 1739.16 C 784.346 1734.74 778.029 1730.45 772.244 1725.68 C 765.423 1720.05 759.916 1713.24 751.717 1709.47 C 749.023 1710.92 746.875 1710.34 743.993 1710.11 C 739.036 1709.71 736.464 1708.99 732.149 1706.64 C 726.793 1701.42 712.508 1695.26 705.163 1693.07 C 704.606 1695.08 704.653 1695.58 703.073 1696.89 C 702.207 1694.72 701.668 1692.81 699.687 1691.39 C 698.811 1691.94 697.975 1692.49 697.161 1693.13 C 696.954 1693.29 696.751 1693.46 696.546 1693.63 L 689.52 1690.84 L 689.466 1689.85 L 694.946 1690.44 C 690.476 1685.38 670.42 1683.77 663.909 1681.62 L 663.389 1679.68 C 661.173 1677.55 659.578 1678.03 656.574 1677.83 L 656.303 1677.02 L 659.591 1676.31 L 659.369 1675.32 C 654.342 1673.51 649.255 1674.92 644.106 1673.53 L 645.419 1672.31 L 645.451 1671.34 C 636.754 1668.18 627.677 1663.69 619.874 1658.72 C 613.364 1657.71 606.975 1656.05 600.577 1654.51 C 600.668 1652.42 602.291 1653.89 603.641 1652.25 C 590.259 1647.58 576.471 1646.45 562.382 1646.26 L 562.861 1646.54 C 562.061 1647.01 560.759 1646.46 559.857 1646.29 L 559.63 1644.53 C 558.063 1643.65 558.681 1643.76 557.029 1643.66 C 540.433 1642.67 523.742 1639.69 507.064 1638.89 C 485.889 1637.88 463.527 1637.65 442.338 1638.49 C 432.964 1638.86 423.441 1640.16 414.025 1640.68 C 401.822 1641.35 388.008 1640.65 376.075 1643.23 C 367.172 1645.15 357.927 1645.8 348.94 1647.48 C 337.134 1649.67 324.619 1654.25 312.62 1654.35 C 312.286 1654.35 311.953 1654.34 311.619 1654.34 z"></path><path fill="url(#k)" d="M 495.652 1501.9 C 512.765 1504.34 529.872 1522.87 547.288 1528.63 C 565.971 1537.57 628.692 1562.88 648.478 1565.89 C 675.333 1574.19 792.235 1614.36 807.873 1629.74 C 805.573 1629.35 803.287 1628.9 800.99 1628.51 C 790.763 1626.76 777.695 1616.74 767.455 1612.21 C 758.115 1608.08 748.405 1604.94 738.934 1601.15 C 734.916 1599.54 731.028 1596.85 726.687 1596.42 C 729.355 1602.51 742.042 1600.96 746.592 1606.48 L 746.002 1607.55 C 743.542 1606.29 742.895 1606.72 740.242 1607.17 C 732.028 1602.16 726.275 1603.92 717.381 1602.47 C 711.215 1601.46 704.884 1599.29 698.915 1597.43 C 669.719 1588.33 641.545 1575.99 612.472 1566.34 C 595.368 1560.81 578.206 1555.46 560.99 1550.3 C 551.076 1547.36 540.998 1545.03 531.298 1541.43 C 531.254 1541.1 531.159 1540.77 531.167 1540.44 C 531.179 1539.93 531.294 1539.42 531.357 1538.91 C 529.157 1537.04 525.814 1537.12 523.026 1536.83 L 521.966 1535.35 L 525.513 1533.37 C 529.804 1533.6 536.61 1534.14 540.3 1536.51 C 545.157 1539.63 549.887 1539.98 555.52 1538.98 L 558.409 1538.5 L 559.569 1538.31 C 566.285 1542.88 569.954 1542.43 576.766 1545.07 L 577.921 1545.53 L 578.345 1545.03 C 578.139 1544.78 577.96 1544.52 577.728 1544.3 C 576.531 1543.17 551.594 1533.41 549.936 1533.36 C 551.226 1534.72 552.412 1535.76 553.168 1537.5 C 552.679 1537.47 552.19 1537.44 551.702 1537.39 C 542.191 1536.43 515.512 1520.72 507.583 1514.5 C 503.098 1510.98 499.188 1506.36 495.652 1501.9 z"></path><path fill="#4db3f8" d="M 379.342 1632.05 C 402.689 1623.96 482.93 1625.84 510.502 1627.09 C 520.84 1627.57 555.441 1633.56 562.121 1630.45 C 563.265 1629.92 564.443 1629.44 565.592 1628.91 L 570.558 1632.17 L 571.631 1630.04 C 601.563 1626.88 619.678 1629.35 648.974 1635.81 C 649.588 1636.74 650.035 1637.42 650.402 1638.49 C 653.203 1638.1 655.179 1637.41 657.707 1639.11 C 663.166 1642.79 663.466 1652.67 669.202 1655.83 C 672.17 1657.47 686.048 1660.6 690.93 1662.48 C 708.444 1669.25 771.367 1697.13 781.879 1710.66 C 770.437 1706.08 758.896 1697.75 748.017 1691.73 C 730.293 1681.8 711.86 1673.2 692.867 1665.99 C 618.235 1636.8 536.513 1627.02 456.726 1628.56 C 439.997 1628.89 423.173 1629.79 406.468 1630.75 C 397.804 1631.24 388.926 1632.46 380.257 1632.1 C 379.952 1632.09 379.647 1632.07 379.342 1632.05 z"></path><path fill="#2582cd" d="M315.899 1675.13C321.877 1670.14 334.576 1669.92 342.192 1668.64 347.443 1667.76 352.693 1665.44 358.024 1664.3 369.701 1661.82 382.788 1661.01 394.713 1660.48 413.552 1659.64 432.624 1659.07 451.481 1658.85 458.557 1658.76 466.598 1659.97 473.53 1658.97L466.52 1658.28C492.945 1656.23 520.264 1659.8 546.793 1660.51 551.667 1660.64 571.839 1659.41 574.423 1660.21 574.668 1660.28 575.656 1660.94 575.929 1661.16 577.524 1662.47 578.747 1664.53 579.938 1666.2L581.317 1666.43C583.404 1664 584.818 1661.54 587.931 1660.55L589.061 1661.4 587.283 1662.33 587.991 1662.57C589.639 1663.15 590.969 1663.71 592.46 1664.61 595.449 1666.41 600.212 1666.02 603.608 1665.87L604.398 1666.56 603.098 1669.95C604.476 1672.23 605.144 1672.3 607.761 1672.94 614.877 1674.67 622.752 1674.46 629.477 1677.47L629.647 1678.57 628.524 1679.59C635.127 1684.94 649.748 1680.51 656.995 1684.89L655.466 1686.88C660.045 1688.93 663.76 1686.12 668.048 1688.14 666.552 1689.2 667.389 1688.7 665.503 1689.55L665.66 1690.64C670.519 1689.14 674.937 1692.32 679.55 1694.26 691.605 1699.36 703.909 1705.75 716.168 1710.08 720.08 1711.46 723.463 1709.25 727.185 1711.43 728.032 1711.93 728.808 1712.78 729.483 1713.47 728.883 1714.99 728.831 1714.75 727.517 1715.52 730.08 1718.41 733.622 1722.21 737.146 1723.92L736.232 1725.1C728.929 1723.56 715.472 1714.07 707.691 1710.41 688.882 1701.43 669.461 1693.81 649.574 1687.58 564.893 1661.66 478.264 1656.13 390.315 1665.03 365.292 1667.56 340.776 1671.79 315.899 1675.13zM705.163 1693.07C712.508 1695.26 726.793 1701.42 732.149 1706.64 740.144 1717.9 759.16 1718.11 764.377 1727.64L763.792 1729.37C761.604 1729.98 755.688 1722.9 752.717 1721.86 739.838 1717.36 721.592 1707.38 709.52 1700.75 706.21 1698.94 706.144 1696.47 705.163 1693.07z"></path><path fill="#4db3f8" d="M 1119.62 1269.75 L 1120.93 1269.88 C 1137.77 1271.37 1155.43 1270.14 1172.35 1270.29 C 1192.01 1270.46 1211.52 1271.93 1231.12 1273.16 C 1239.45 1273.68 1247.88 1273.59 1256.18 1274.38 C 1271.02 1275.8 1285.95 1278.91 1300.72 1281.09 C 1346.09 1287.78 1390.71 1295.78 1435.28 1306.82 C 1459.31 1312.77 1482.92 1320.3 1506.8 1326.76 C 1526.52 1332.1 1546.86 1334.67 1565.91 1342.44 C 1578.46 1347.56 1591.22 1354.87 1600.15 1365.26 C 1607.59 1373.9 1611.86 1384.2 1614.89 1395.1 C 1621.5 1418.82 1624.41 1443.76 1628.57 1467.99 C 1633.38 1496 1638.89 1523.98 1643.92 1551.96 C 1648.52 1577.53 1652.88 1603.27 1657.75 1628.77 C 1663.15 1657.03 1674.36 1701.26 1672.08 1729.06 C 1671.26 1739.07 1664.37 1745.9 1658.26 1753.25 C 1664.49 1768.47 1667.24 1796.86 1670.1 1814.09 C 1675.7 1847.77 1683.39 1881.16 1684.92 1915.4 C 1685.46 1927.52 1685.66 1942 1680.94 1953.34 C 1676.64 1963.66 1668.37 1973.44 1658.96 1979.45 C 1628.6 2005.93 1578.73 1988.48 1545 1979.68 C 1525.72 1974.65 1505.95 1969.86 1486.38 1966.17 C 1460.19 1961.24 1433.63 1956.31 1407.26 1952.53 C 1391.58 1950.29 1375.76 1948.95 1360.04 1946.96 C 1335.9 1943.89 1311.88 1940.42 1287.59 1938.67 C 1248.86 1935.87 1209.74 1935.39 1170.92 1935.21 C 1131.16 1935.03 1090.06 1935.08 1050.84 1942.33 C 1027.19 1946.71 1003.4 1951.85 980.759 1959.98 C 965.417 1965.49 948.878 1974.75 933.042 1977.95 L 931.607 1978.23 C 928.375 1965.21 929.671 1949.85 929.684 1936.45 C 929.928 1925.19 927.292 1890.8 931.407 1881.65 C 930.482 1876.16 929.455 1870.69 928.325 1865.25 C 926.834 1861.69 925.604 1857.52 922.814 1854.78 C 920.075 1851.01 916.811 1848.3 913.254 1845.34 L 912.306 1844.81 C 898.999 1837.29 884.791 1836.75 872.32 1826.73 C 877.794 1822.34 881.897 1814.71 885.653 1808.9 C 875.181 1816.55 872.258 1820.8 858.091 1820.77 C 856.979 1819.86 855.884 1818.97 854.826 1818 C 858.742 1816.51 863.77 1817 867.894 1815.92 C 870.312 1815.29 871.072 1814.66 872.265 1812.53 C 868.274 1809.75 847.292 1808.66 841.731 1809.51 C 841.399 1809.56 841.104 1809.75 840.79 1809.87 L 839.824 1807.25 C 835.663 1803.59 828.437 1799.81 826.167 1794.84 C 827.035 1794.22 827.539 1793.38 828.175 1792.54 C 828.373 1790.72 828.331 1789.39 829.563 1787.96 C 832.205 1789.38 829.717 1792.01 831.297 1793.96 L 831.261 1792.84 L 831.975 1792.52 L 832.167 1791.1 C 833.614 1792.73 834.826 1793.88 836.665 1795.11 L 838.241 1794.58 C 839.969 1790.23 838.99 1784.74 838.743 1780.13 L 839.047 1771.59 C 839.564 1774.44 840.114 1777.25 840.821 1780.07 L 841.872 1780.38 C 843.811 1773.1 842.114 1760.8 842.295 1752.9 C 842.825 1729.74 843.253 1704.23 848.143 1681.59 L 848.093 1683.47 C 849.758 1676.68 851.226 1669.64 853.415 1663.01 C 857.951 1649.27 880.575 1623.81 892.048 1615.08 C 898.363 1610.28 907.803 1606.77 915.034 1603.12 C 937.29 1591.82 959.678 1580.78 982.195 1570 C 997.929 1562.81 1013.96 1555.48 1028.88 1546.7 C 1035.66 1542.7 1050.74 1534.27 1052.79 1526.34 L 1053.17 1524.81 C 1068.38 1514.65 1087.84 1486.17 1095.72 1469.8 C 1104.68 1457.32 1110.86 1433.71 1114.04 1418.49 L 1116.46 1417.02 C 1121.7 1400.72 1121.18 1380.94 1122.18 1363.85 L 1122.54 1366.1 C 1123.56 1355.18 1124.64 1343.03 1122.41 1332.24 L 1121.91 1335.59 C 1119.32 1332.01 1123.59 1284.39 1119.09 1272.46 L 1119.62 1269.75 z"></path><path fill="#d7bda5" d="M 930.862 1761.3 C 965.811 1725.77 1051.68 1697.43 1100.22 1688.95 C 1125.05 1684.61 1151.17 1683.06 1176.36 1682.85 C 1211.27 1682.56 1246.7 1682.94 1281.5 1686.02 C 1369.58 1693.82 1464.25 1716.71 1548.83 1742.36 C 1560.92 1746.03 1572.72 1750.39 1584.73 1754.24 C 1593.17 1756.95 1604.3 1758.61 1611.68 1763.07 L 1612.94 1765.08 C 1616.75 1763.86 1621.1 1763.95 1625.07 1763.57 C 1636.45 1762.49 1648.92 1759.5 1657.51 1751.45 L 1658.26 1753.25 C 1664.49 1768.47 1667.24 1796.86 1670.1 1814.09 C 1675.7 1847.77 1683.39 1881.16 1684.92 1915.4 C 1685.46 1927.52 1685.66 1942 1680.94 1953.34 C 1676.64 1963.66 1668.37 1973.44 1658.96 1979.45 C 1628.6 2005.93 1578.73 1988.48 1545 1979.68 C 1525.72 1974.65 1505.95 1969.86 1486.38 1966.17 C 1460.19 1961.24 1433.63 1956.31 1407.26 1952.53 C 1391.58 1950.29 1375.76 1948.95 1360.04 1946.96 C 1335.9 1943.89 1311.88 1940.42 1287.59 1938.67 C 1248.86 1935.87 1209.74 1935.39 1170.92 1935.21 C 1131.16 1935.03 1090.06 1935.08 1050.84 1942.33 C 1027.19 1946.71 1003.4 1951.85 980.759 1959.98 C 965.417 1965.49 948.878 1974.75 933.042 1977.95 L 931.607 1978.23 C 928.375 1965.21 929.671 1949.85 929.684 1936.45 C 929.928 1925.19 927.292 1890.8 931.407 1881.65 C 930.482 1876.16 929.455 1870.69 928.325 1865.25 C 926.834 1861.69 925.604 1857.52 922.814 1854.78 C 920.075 1851.01 916.811 1848.3 913.254 1845.34 L 912.306 1844.81 C 898.999 1837.29 884.791 1836.75 872.32 1826.73 C 877.794 1822.34 881.897 1814.71 885.653 1808.9 L 891.415 1802.16 C 901.044 1786.97 916.698 1772.32 930.862 1761.3 z"></path><path fill="url(#l)" d="M 1612.94 1765.08 C 1616.75 1763.86 1621.1 1763.95 1625.07 1763.57 C 1636.45 1762.49 1648.92 1759.5 1657.51 1751.45 L 1658.26 1753.25 C 1664.49 1768.47 1667.24 1796.86 1670.1 1814.09 C 1675.7 1847.77 1683.39 1881.16 1684.92 1915.4 C 1685.46 1927.52 1685.66 1942 1680.94 1953.34 C 1676.64 1963.66 1668.37 1973.44 1658.96 1979.45 C 1628.6 2005.93 1578.73 1988.48 1545 1979.68 C 1525.72 1974.65 1505.95 1969.86 1486.38 1966.17 C 1460.19 1961.24 1433.63 1956.31 1407.26 1952.53 C 1391.58 1950.29 1375.76 1948.95 1360.04 1946.96 C 1335.9 1943.89 1311.88 1940.42 1287.59 1938.67 C 1248.86 1935.87 1209.74 1935.39 1170.92 1935.21 C 1131.16 1935.03 1090.06 1935.08 1050.84 1942.33 C 1027.19 1946.71 1003.4 1951.85 980.759 1959.98 C 965.417 1965.49 948.878 1974.75 933.042 1977.95 L 931.607 1978.23 C 928.375 1965.21 929.671 1949.85 929.684 1936.45 C 929.928 1925.19 927.292 1890.8 931.407 1881.65 C 951.303 1879.1 970.507 1872.88 990.066 1868.65 C 1014.76 1863.3 1040.67 1859.94 1065.76 1856.88 C 1178.58 1843.12 1303.74 1850.63 1416.15 1867.17 C 1432.77 1869.62 1449.23 1873.14 1465.8 1875.95 C 1480.81 1878.5 1495.95 1880.61 1510.85 1883.75 C 1530.23 1887.83 1568.34 1898.61 1586.42 1897.94 C 1593.93 1897.66 1599.88 1895.04 1605.93 1890.79 C 1607.68 1887.92 1609.07 1885.14 1609.72 1881.82 C 1613.1 1864.7 1610.94 1824.56 1610.89 1805.14 C 1611.81 1795.52 1611.63 1785.62 1611.84 1775.94 C 1611.92 1772.23 1612.34 1768.73 1612.94 1765.08 z"></path><path fill="#2c588e" d="M 929.684 1936.45 L 935.131 1935.38 C 933.758 1935.26 932.688 1934.89 931.385 1934.47 L 932.055 1933.15 C 937.858 1931.9 945.084 1933.62 951.08 1933.68 C 956.132 1933.73 961.752 1932.42 966.747 1931.57 C 983.315 1928.76 999.548 1924.09 1016.16 1921.6 C 1095.98 1909.97 1176.77 1906.38 1257.31 1910.87 C 1268.59 1909.95 1281.98 1912.11 1293.41 1912.84 C 1320.57 1914.58 1348.75 1916.62 1375.64 1920.77 C 1402.46 1924.91 1429.26 1931.05 1456.06 1934.72 C 1472.13 1936.93 1488.46 1933.33 1504.94 1936.15 L 1505.21 1936.56 C 1502.95 1936.79 1500.98 1936.89 1498.73 1936.6 C 1496.8 1936.36 1495.37 1936.52 1493.46 1936.81 C 1486.51 1937.88 1478.07 1937.77 1471.24 1935.94 L 1470.62 1937.29 C 1476.81 1941.36 1540.16 1953.62 1552.48 1956.58 C 1569.69 1960.72 1586.69 1965.73 1603.96 1969.65 C 1608.72 1970.73 1628.51 1972.25 1629.8 1975.71 C 1627.29 1977.18 1624.6 1975.99 1621.86 1977.36 C 1629.82 1979.98 1639.06 1984.05 1647.55 1982.62 C 1651.5 1981.96 1654.93 1979.98 1658.96 1979.45 C 1628.6 2005.93 1578.73 1988.48 1545 1979.68 C 1525.72 1974.65 1505.95 1969.86 1486.38 1966.17 C 1460.19 1961.24 1433.63 1956.31 1407.26 1952.53 C 1391.58 1950.29 1375.76 1948.95 1360.04 1946.96 C 1335.9 1943.89 1311.88 1940.42 1287.59 1938.67 C 1248.86 1935.87 1209.74 1935.39 1170.92 1935.21 C 1131.16 1935.03 1090.06 1935.08 1050.84 1942.33 C 1027.19 1946.71 1003.4 1951.85 980.759 1959.98 C 965.417 1965.49 948.878 1974.75 933.042 1977.95 L 931.607 1978.23 C 928.375 1965.21 929.671 1949.85 929.684 1936.45 z"></path><path fill="#2582cd" d="M 1257.31 1910.87 C 1268.59 1909.95 1281.98 1912.11 1293.41 1912.84 C 1320.57 1914.58 1348.75 1916.62 1375.64 1920.77 C 1402.46 1924.91 1429.26 1931.05 1456.06 1934.72 C 1472.13 1936.93 1488.46 1933.33 1504.94 1936.15 L 1505.21 1936.56 C 1502.95 1936.79 1500.98 1936.89 1498.73 1936.6 C 1496.8 1936.36 1495.37 1936.52 1493.46 1936.81 C 1486.51 1937.88 1478.07 1937.77 1471.24 1935.94 L 1470.62 1937.29 C 1476.81 1941.36 1540.16 1953.62 1552.48 1956.58 C 1569.69 1960.72 1586.69 1965.73 1603.96 1969.65 C 1608.72 1970.73 1628.51 1972.25 1629.8 1975.71 C 1627.29 1977.18 1624.6 1975.99 1621.86 1977.36 C 1620.35 1977 1619.11 1976.68 1617.56 1976.89 C 1605.21 1978.59 1548.19 1961.44 1530.95 1957.39 C 1499.8 1950.08 1468.26 1942.33 1436.72 1937 C 1319.94 1917.27 1199.73 1908.58 1081.49 1919.31 C 1060.23 1921.24 1038.71 1924.59 1017.56 1927.62 L 1017.55 1926.66 C 1020.42 1924.53 1074.2 1915.15 1080.07 1915.73 C 1086.91 1916.4 1092.67 1914.61 1099.26 1914.02 C 1117.32 1912.41 1136.34 1912.25 1154.52 1911.57 C 1175.35 1910.79 1196.49 1911.39 1217.33 1912.05 C 1228.51 1912.4 1243.65 1915.07 1254.41 1912.69 C 1255.14 1912.53 1256.61 1911.31 1257.31 1910.87 z"></path><path fill="#a8917f" d="M 930.862 1761.3 C 965.811 1725.77 1051.68 1697.43 1100.22 1688.95 C 1125.05 1684.61 1151.17 1683.06 1176.36 1682.85 C 1211.27 1682.56 1246.7 1682.94 1281.5 1686.02 C 1369.58 1693.82 1464.25 1716.71 1548.83 1742.36 C 1560.92 1746.03 1572.72 1750.39 1584.73 1754.24 C 1593.17 1756.95 1604.3 1758.61 1611.68 1763.07 L 1612.94 1765.08 C 1612.34 1768.73 1611.92 1772.23 1611.84 1775.94 C 1609.63 1776.51 1608.16 1777.04 1605.88 1776.55 C 1606.41 1774.82 1606.54 1773.55 1606.71 1771.77 C 1601.25 1770.25 1595.06 1771.96 1589.43 1771.51 C 1585.39 1771.2 1581.05 1769.74 1577.17 1768.65 C 1563.53 1764.79 1550.24 1759.04 1536.82 1754.45 C 1518.88 1748.32 1500.64 1743.25 1482.39 1738.15 C 1453.51 1730.07 1424.98 1723.62 1395.72 1717.28 C 1348.44 1707.03 1301.74 1698.51 1253.38 1695.14 C 1242.43 1694.38 1231.51 1694.71 1220.56 1694.33 C 1140.14 1691.57 1077.64 1696.28 1001.94 1727.15 C 996.281 1729.46 991.22 1733.61 986.236 1737.14 L 987.611 1735.62 C 981.807 1739.64 975.661 1744.55 969.238 1747.43 C 962.483 1750.45 953.814 1751.93 947.734 1756.01 C 940.021 1761.19 932.535 1769.75 925.482 1776.05 C 925.857 1773.4 926.247 1772.09 927.854 1769.91 C 928.991 1768.37 929.918 1766.99 930.761 1765.26 C 931.727 1763.28 931.594 1763.39 930.862 1761.3 z"></path><path fill="#cd8f67" d="M 930.862 1761.3 C 931.594 1763.39 931.727 1763.28 930.761 1765.26 C 929.918 1766.99 928.991 1768.37 927.854 1769.91 C 926.247 1772.09 925.857 1773.4 925.482 1776.05 C 915.925 1788.24 898.149 1799.54 900.589 1817.29 C 901.458 1823.61 905.262 1828.67 910.362 1832.3 C 911.989 1833.45 913.416 1834.3 915.307 1834.9 C 916.884 1834.36 917.209 1834.19 918.469 1832.97 C 921.294 1837.24 927.598 1843.43 928.695 1848.16 C 926.548 1848.23 925.321 1847.32 923.463 1846.35 C 922.597 1847.38 922.36 1847.19 922.54 1848.43 C 923.552 1855.42 929.259 1853.97 928.325 1865.25 C 926.834 1861.69 925.604 1857.52 922.814 1854.78 C 920.075 1851.01 916.811 1848.3 913.254 1845.34 L 912.306 1844.81 C 898.999 1837.29 884.791 1836.75 872.32 1826.73 C 877.794 1822.34 881.897 1814.71 885.653 1808.9 L 891.415 1802.16 C 901.044 1786.97 916.698 1772.32 930.862 1761.3 z"></path><path fill="#d06010" d="M 891.415 1802.16 C 891.433 1802.63 891.468 1803.09 891.471 1803.56 C 891.52 1810.7 884.188 1817.94 884.777 1825.18 C 894.466 1832.35 906.574 1834.53 913.254 1845.34 L 912.306 1844.81 C 898.999 1837.29 884.791 1836.75 872.32 1826.73 C 877.794 1822.34 881.897 1814.71 885.653 1808.9 L 891.415 1802.16 z"></path><path fill="#fef8f0" d="M 1605.93 1890.79 C 1604.81 1890.71 1604.18 1890.71 1603.13 1890.52 C 1597.04 1889.48 1591.64 1886 1588.19 1880.88 C 1591.04 1880.76 1598.34 1885.12 1601.59 1886.2 L 1602.55 1885.45 C 1600.88 1884.23 1599.31 1883.06 1597.85 1881.58 C 1598 1880.95 1598.22 1880.12 1598.32 1879.49 C 1598.74 1876.94 1598.47 1876.95 1596.91 1874.95 C 1594.13 1873.96 1593.95 1875.53 1591.22 1875.25 C 1590.75 1874.27 1590.38 1873.44 1590.2 1872.36 C 1588.5 1862.37 1593.5 1828.29 1599.17 1819.49 C 1602.43 1826.96 1596.62 1838.8 1598.41 1847.33 C 1598.77 1841.48 1606.04 1836.85 1608.52 1831.39 C 1611.07 1825.8 1607.81 1814.18 1608.73 1807.48 C 1608.91 1806.18 1609.89 1805.91 1610.89 1805.14 C 1610.94 1824.56 1613.1 1864.7 1609.72 1881.82 C 1609.07 1885.14 1607.68 1887.92 1605.93 1890.79 z"></path><path fill="url(#m)" d="M 1122.41 1332.24 C 1121.33 1319.06 1122.08 1305.48 1122.38 1292.26 C 1122.78 1296.04 1122.72 1302.24 1125.57 1304.88 C 1128.22 1304.92 1131.07 1304.21 1133.61 1304.44 C 1137.25 1304.76 1141.79 1306.98 1145.25 1308.25 C 1159.59 1313.53 1173.24 1319.69 1186.76 1326.8 C 1192.78 1329.96 1198.48 1333.85 1204.63 1336.68 C 1208.71 1338.56 1211.1 1342.46 1214.95 1344.7 L 1216.54 1343.72 C 1220.38 1354.37 1264.8 1377.25 1254.83 1399.11 C 1248.9 1412.11 1234.53 1419.99 1221.56 1424.37 C 1188.41 1435.58 1151.94 1440.75 1122.32 1460.98 C 1107.17 1471.33 1102.23 1489.07 1091.22 1502.74 C 1084.87 1510.63 1077.5 1517.89 1070.77 1525.47 C 1062.96 1534.25 1055.68 1543.41 1047.61 1551.96 C 1024.79 1576.1 981.43 1597.14 966.628 1626.18 C 959.658 1639.85 957.527 1661.48 952.218 1670.66 C 948.479 1677.13 937.87 1679.23 937.277 1687.66 C 938.261 1689.52 938.267 1689.89 940.135 1690.78 C 952.509 1688.98 964.838 1684.64 976.85 1681.2 C 1001.64 1674.1 1026.78 1666.39 1052.15 1661.68 C 1178.42 1638.2 1308.04 1650.45 1432.55 1678.07 C 1442.09 1681.08 1452.26 1681.74 1461.87 1684.47 L 1523.69 1702.29 C 1541.26 1707.24 1558.98 1711.5 1576.34 1717.21 C 1596.38 1725.23 1638.59 1736.09 1653.12 1746.91 C 1654.73 1748.11 1656.19 1749.09 1657.52 1750.61 L 1657.51 1751.45 C 1648.92 1759.5 1636.45 1762.49 1625.07 1763.57 C 1621.1 1763.95 1616.75 1763.86 1612.94 1765.08 L 1611.68 1763.07 C 1604.3 1758.61 1593.17 1756.95 1584.73 1754.24 C 1572.72 1750.39 1560.92 1746.03 1548.83 1742.36 C 1464.25 1716.71 1369.58 1693.82 1281.5 1686.02 C 1246.7 1682.94 1211.27 1682.56 1176.36 1682.85 C 1151.17 1683.06 1125.05 1684.61 1100.22 1688.95 C 1051.68 1697.43 965.811 1725.77 930.862 1761.3 C 916.698 1772.32 901.044 1786.97 891.415 1802.16 L 885.653 1808.9 C 875.181 1816.55 872.258 1820.8 858.091 1820.77 C 856.979 1819.86 855.884 1818.97 854.826 1818 C 858.742 1816.51 863.77 1817 867.894 1815.92 C 870.312 1815.29 871.072 1814.66 872.265 1812.53 C 868.274 1809.75 847.292 1808.66 841.731 1809.51 C 841.399 1809.56 841.104 1809.75 840.79 1809.87 L 839.824 1807.25 C 835.663 1803.59 828.437 1799.81 826.167 1794.84 C 827.035 1794.22 827.539 1793.38 828.175 1792.54 C 828.373 1790.72 828.331 1789.39 829.563 1787.96 C 832.205 1789.38 829.717 1792.01 831.297 1793.96 L 831.261 1792.84 L 831.975 1792.52 L 832.167 1791.1 C 833.614 1792.73 834.826 1793.88 836.665 1795.11 L 838.241 1794.58 C 839.969 1790.23 838.99 1784.74 838.743 1780.13 L 839.047 1771.59 C 839.564 1774.44 840.114 1777.25 840.821 1780.07 L 841.872 1780.38 C 843.811 1773.1 842.114 1760.8 842.295 1752.9 C 842.825 1729.74 843.253 1704.23 848.143 1681.59 L 848.093 1683.47 C 849.758 1676.68 851.226 1669.64 853.415 1663.01 C 857.951 1649.27 880.575 1623.81 892.048 1615.08 C 898.363 1610.28 907.803 1606.77 915.034 1603.12 C 937.29 1591.82 959.678 1580.78 982.195 1570 C 997.929 1562.81 1013.96 1555.48 1028.88 1546.7 C 1035.66 1542.7 1050.74 1534.27 1052.79 1526.34 L 1053.17 1524.81 C 1068.38 1514.65 1087.84 1486.17 1095.72 1469.8 C 1104.68 1457.32 1110.86 1433.71 1114.04 1418.49 L 1116.46 1417.02 C 1121.7 1400.72 1121.18 1380.94 1122.18 1363.85 L 1122.54 1366.1 C 1123.56 1355.18 1124.64 1343.03 1122.41 1332.24 z"></path><path fill="#2582cd" d="M 1162.1 1657.77 C 1184.42 1658.52 1206.45 1657.68 1228.76 1657.4 L 1229.44 1658.31 C 1225.47 1660.67 1217.89 1659.5 1213.13 1659.44 C 1213.94 1659.67 1214.04 1659.72 1215.01 1659.87 C 1217.4 1660.23 1226.71 1661.37 1228.6 1660.67 C 1230.01 1660.15 1232.4 1657.92 1233.69 1656.98 C 1241.49 1656.1 1247.98 1659.8 1255.41 1660.1 C 1271.69 1660.77 1294.14 1658.9 1309.5 1661.2 C 1311.5 1661.5 1313.01 1662.75 1314.58 1663.92 L 1314.56 1665.12 L 1311.69 1666.29 C 1317.09 1668.55 1325.03 1667.71 1330.93 1668.96 C 1333.93 1669.6 1337.88 1671.71 1340.87 1671.47 C 1341.88 1671.4 1343.61 1670.64 1344.59 1670.28 C 1347.39 1669.25 1349.89 1669.16 1352.84 1668.99 C 1364.19 1676.83 1379.92 1674.63 1393.08 1676.97 C 1401.5 1678.47 1410 1681.18 1418.4 1683 C 1425.06 1684.44 1432.84 1684.99 1439.17 1687.37 L 1438.46 1688.36 L 1433.59 1688.64 C 1437.54 1692.65 1449.26 1692.02 1454.8 1693.03 C 1455.61 1693.92 1456.56 1695.17 1457.55 1695.84 C 1459.61 1697.24 1462.7 1696.31 1465.02 1696.05 C 1468.64 1695.63 1471.26 1695.16 1474.7 1696.59 C 1482.03 1699.66 1486.94 1702.67 1494.85 1700.87 C 1500.29 1699.63 1516.58 1708.31 1523.73 1709.49 C 1530.62 1710.63 1538.62 1708.6 1544.78 1712.62 C 1542.27 1714.1 1537.97 1713.57 1535.1 1713.6 L 1536.16 1714.54 C 1539.24 1715.01 1543.73 1715.23 1546.2 1717.26 C 1546.6 1717.59 1546.96 1717.95 1547.34 1718.3 C 1548.86 1717.65 1549.97 1717.3 1551 1715.92 C 1551.2 1715.66 1551.35 1715.36 1551.52 1715.07 C 1553.71 1714.9 1553.9 1714.83 1555.77 1715.95 L 1554.48 1717.66 C 1556.24 1717.91 1557.99 1718.01 1559.77 1718.12 L 1559.08 1719.44 L 1556.92 1719.49 C 1560.44 1722.92 1574.22 1723.71 1579.51 1725.3 C 1581.59 1725.92 1583.45 1726.24 1584.5 1728.18 C 1581.69 1729.07 1578.8 1727.3 1576.06 1726.29 L 1575.18 1726.76 C 1581.42 1730.26 1604.25 1736.56 1612.33 1738.56 C 1615.12 1739.25 1616.25 1739.67 1618.25 1741.79 C 1618.77 1741.79 1619.28 1741.79 1619.79 1741.81 C 1623.25 1741.95 1627.01 1743.47 1629.31 1746.07 L 1628.71 1747.17 C 1619.83 1748.08 1546.54 1721.4 1528.99 1716.4 C 1414.8 1683.88 1297.56 1662.6 1178.5 1662.39 C 1146.18 1662.33 1111.23 1663.09 1079.56 1670.07 L 1079.25 1669.22 C 1081.46 1667.38 1083.87 1667.59 1086.61 1667.41 C 1092.81 1666.99 1096.64 1661.68 1102.9 1661.3 C 1114.54 1660.59 1153.17 1661.15 1161.1 1658.17 C 1161.44 1658.05 1161.77 1657.91 1162.1 1657.77 z"></path><path fill="url(#n)" d="M 1343.27 1645.02 C 1294.27 1634.97 1229.67 1631.01 1179.5 1632.86 C 1161.54 1633.53 1143.12 1634.26 1125.28 1636.4 C 1118.84 1637.17 1112.57 1639.16 1106.23 1639.93 C 1103.26 1640.29 1096.3 1640.8 1093.72 1639.51 C 1097.25 1637.31 1101.31 1638.59 1105.26 1638.1 C 1109.85 1637.53 1114.31 1635.89 1118.95 1635.28 C 1141.65 1632.29 1165.96 1630.58 1188.86 1630.15 C 1193.3 1630.07 1217.73 1631.17 1220.41 1629.91 C 1218.57 1628.56 1217.89 1628.5 1215.6 1628.59 C 1213.3 1628.67 1212.49 1628.35 1210.44 1627.42 C 1199.29 1622.35 1105.53 1628.34 1092.63 1631.73 C 1088.66 1632.78 1084.53 1632.71 1080.44 1632.81 L 1080.01 1632.06 C 1108.17 1625.68 1140.21 1625.05 1169.09 1624.36 C 1285.87 1621.6 1399.52 1642.06 1512.08 1671.68 C 1533.84 1677.4 1555.33 1684.23 1577.03 1690.2 C 1585.49 1692.52 1593.97 1695.01 1602.53 1696.94 C 1612.07 1699.09 1642.17 1703.71 1648.99 1707.58 C 1649.73 1708 1649.86 1708.27 1650.32 1708.86 C 1650.29 1710.2 1650.69 1711.16 1649.55 1712.08 C 1643.96 1716.62 1626.12 1713.83 1619.59 1712.55 C 1616.95 1712.01 1614.32 1711.45 1611.7 1710.86 C 1612.01 1711.31 1612.31 1711.77 1612.64 1712.21 C 1615.91 1716.54 1626.95 1718.18 1632.2 1718.55 C 1634 1718.69 1635.81 1718.76 1637.61 1718.76 L 1637.35 1719.71 C 1627.89 1721.09 1619.06 1719.58 1609.76 1720.22 C 1598.86 1720.27 1586.87 1711.57 1576.34 1717.21 C 1558.98 1711.5 1541.26 1707.24 1523.69 1702.29 L 1461.87 1684.47 C 1452.26 1681.74 1442.09 1681.08 1432.55 1678.07 C 1434.47 1677.48 1436.26 1676.97 1438 1675.92 C 1436.78 1675.16 1435.72 1674.6 1434.37 1674.1 C 1431.67 1673.1 1429.74 1672.27 1427.54 1670.37 C 1427.35 1670.21 1427.17 1670.03 1426.98 1669.86 L 1425.76 1668.66 C 1421.48 1667.79 1417.58 1665.86 1413.33 1664.83 C 1400.79 1661.77 1388.05 1659.24 1375.36 1656.9 C 1366.98 1655.37 1354.23 1655.43 1347.63 1653.74 C 1345.36 1653.15 1343.68 1651.51 1341.98 1649.98 C 1338.83 1649.76 1336.16 1649.61 1333.23 1648.37 L 1333.63 1646.95 C 1336.72 1644.85 1339.63 1645.23 1343.27 1645.02 z"></path><path fill="#3ca5f6" d="M 1343.27 1645.02 C 1365.63 1647.41 1387.96 1652.56 1409.93 1657.26 C 1448.78 1665.57 1487.26 1674.49 1525.5 1685.32 C 1554.3 1693.48 1582.78 1703.25 1611.7 1710.86 C 1612.01 1711.31 1612.31 1711.77 1612.64 1712.21 C 1615.91 1716.54 1626.95 1718.18 1632.2 1718.55 C 1634 1718.69 1635.81 1718.76 1637.61 1718.76 L 1637.35 1719.71 C 1627.89 1721.09 1619.06 1719.58 1609.76 1720.22 C 1598.86 1720.27 1586.87 1711.57 1576.34 1717.21 C 1558.98 1711.5 1541.26 1707.24 1523.69 1702.29 L 1461.87 1684.47 C 1452.26 1681.74 1442.09 1681.08 1432.55 1678.07 C 1434.47 1677.48 1436.26 1676.97 1438 1675.92 C 1436.78 1675.16 1435.72 1674.6 1434.37 1674.1 C 1431.67 1673.1 1429.74 1672.27 1427.54 1670.37 C 1427.35 1670.21 1427.17 1670.03 1426.98 1669.86 L 1425.76 1668.66 C 1421.48 1667.79 1417.58 1665.86 1413.33 1664.83 C 1400.79 1661.77 1388.05 1659.24 1375.36 1656.9 C 1366.98 1655.37 1354.23 1655.43 1347.63 1653.74 C 1345.36 1653.15 1343.68 1651.51 1341.98 1649.98 C 1338.83 1649.76 1336.16 1649.61 1333.23 1648.37 L 1333.63 1646.95 C 1336.72 1644.85 1339.63 1645.23 1343.27 1645.02 z"></path><path fill="#2582cd" d="M 1426.98 1669.86 C 1465.34 1678.28 1503.37 1688.11 1541 1699.34 L 1588.69 1713.66 C 1595.54 1715.75 1602.78 1718.88 1609.76 1720.22 C 1598.86 1720.27 1586.87 1711.57 1576.34 1717.21 C 1558.98 1711.5 1541.26 1707.24 1523.69 1702.29 L 1461.87 1684.47 C 1452.26 1681.74 1442.09 1681.08 1432.55 1678.07 C 1434.47 1677.48 1436.26 1676.97 1438 1675.92 C 1436.78 1675.16 1435.72 1674.6 1434.37 1674.1 C 1431.67 1673.1 1429.74 1672.27 1427.54 1670.37 C 1427.35 1670.21 1427.17 1670.03 1426.98 1669.86 z"></path><path fill="#fb9717" d="M 800.566 1823.36 C 810.375 1833.9 821.904 1838.43 836.195 1838.94 C 853.566 1839.56 859.12 1837.08 872.32 1826.73 C 884.791 1836.75 898.999 1837.29 912.306 1844.81 L 913.254 1845.34 C 916.811 1848.3 920.075 1851.01 922.814 1854.78 C 925.604 1857.52 926.834 1861.69 928.325 1865.25 C 929.455 1870.69 930.482 1876.16 931.407 1881.65 C 927.292 1890.8 929.928 1925.19 929.684 1936.45 C 929.671 1949.85 928.375 1965.21 931.607 1978.23 C 931.963 1997.98 934.109 2016.55 926.986 2035.43 C 920.455 2041.07 914.983 2044.36 905.946 2043.47 C 881.464 2041.07 857.22 2014.52 834.742 2009.87 C 834.369 2009.98 833.994 2010.09 833.622 2010.21 C 813.133 2016.81 772.688 2052.42 751.691 2041.79 C 746.256 2039.04 743.387 2033.78 741.811 2028.11 C 737.626 2013.07 740.481 1995.14 740.06 1979.65 C 743.364 1965.76 741.463 1948.85 741.17 1934.55 C 739.237 1917.62 740.725 1899.18 740.929 1882.09 C 732.441 1881.1 724.06 1879.34 715.892 1876.83 C 719.921 1876.88 723.858 1876.84 727.736 1875.6 C 732.792 1873.99 740.612 1869.2 742.886 1864.05 C 743.109 1863.55 743.282 1863.02 743.494 1862.51 C 743.847 1861.66 744.226 1860.82 744.572 1859.96 C 745.403 1857.69 746.205 1855.2 747.37 1853.07 C 751.639 1845.29 760.738 1841.86 768.768 1839.55 C 769.018 1839.52 769.269 1839.48 769.518 1839.44 C 779.527 1837.7 794.561 1831.97 800.566 1823.36 z"></path><path fill="#440d02" d="M 800.566 1823.36 C 810.375 1833.9 821.904 1838.43 836.195 1838.94 C 853.566 1839.56 859.12 1837.08 872.32 1826.73 C 884.791 1836.75 898.999 1837.29 912.306 1844.81 L 913.254 1845.34 C 916.811 1848.3 920.075 1851.01 922.814 1854.78 C 905.752 1845.77 887.487 1836.74 867.943 1843.57 C 860.467 1846.18 853.287 1849.76 845.513 1851.44 C 832.235 1854.31 817.298 1852.72 804.003 1850.82 C 793.394 1848.68 762.609 1846.14 753.446 1851.96 C 750.213 1854.01 747.357 1857.35 744.572 1859.96 C 745.403 1857.69 746.205 1855.2 747.37 1853.07 C 751.639 1845.29 760.738 1841.86 768.768 1839.55 C 769.018 1839.52 769.269 1839.48 769.518 1839.44 C 779.527 1837.7 794.561 1831.97 800.566 1823.36 z"></path><path fill="#9e715d" d="M 744.572 1859.96 C 747.357 1857.35 750.213 1854.01 753.446 1851.96 C 762.609 1846.14 793.394 1848.68 804.003 1850.82 C 783.762 1860.36 762.678 1838.93 744.543 1863.95 C 742.822 1875.6 742.061 1886.8 742.049 1898.58 C 742.037 1909.85 743.633 1923.69 741.17 1934.55 C 739.237 1917.62 740.725 1899.18 740.929 1882.09 C 732.441 1881.1 724.06 1879.34 715.892 1876.83 C 719.921 1876.88 723.858 1876.84 727.736 1875.6 C 732.792 1873.99 740.612 1869.2 742.886 1864.05 C 743.109 1863.55 743.282 1863.02 743.494 1862.51 C 743.847 1861.66 744.226 1860.82 744.572 1859.96 z"></path><path fill="#fede88" d="M 911.085 1880.15 C 912.724 1880.44 914.275 1880.9 915.873 1881.36 C 921.882 1892.38 919.108 1978.68 916.82 1995.74 C 915.571 1995.38 913.911 1995.06 912.992 1994.05 C 906.244 1986.68 909.214 1895.2 911.085 1880.15 z"></path><path fill="url(#o)" d="M 40.9953 1588.91 C 42.646 1605.24 38.061 1622.83 35.5255 1638.94 C 31.8878 1662.06 28.0863 1685.24 25.4232 1708.5 C 24.7369 1714.49 22.7842 1724.38 24.2485 1730.17 C 26.1963 1737.87 32.5372 1745.85 38.5052 1750.85 C 42.425 1754.14 64.0681 1753.76 70.8088 1758.23 L 69.9681 1759.34 C 62.284 1758.66 51.1805 1754.06 44.0454 1755.18 C 47.8943 1756.41 51.1393 1757.64 54.6396 1759.7 C 63.3164 1764.05 70.6799 1764.28 79.8798 1761.97 C 80.052 1770.03 79.7448 1778.43 80.8744 1786.41 L 82.0201 1851.9 C 81.7623 1863.76 81.6569 1875.5 83.8447 1887.21 C 91.9416 1894.8 100.912 1897.83 111.918 1897.54 C 133.451 1896.99 162.385 1888.71 183.979 1884.3 C 192.168 1882.63 202.705 1879.64 210.993 1880.64 C 189.089 1884.15 166.782 1889.44 145.079 1894.17 C 132.748 1896.85 120.116 1901.12 107.386 1900.96 C 100.518 1900.87 94.3 1899.25 88.3246 1895.8 C 84.7264 1893.36 82.118 1889.85 78.6499 1887.26 C 68.8855 1879.95 54.586 1874.46 42.4468 1873.45 C 38.295 1873.1 34.5656 1875.55 30.8458 1875.21 C 24.6501 1874.64 27.6484 1857.21 24.7672 1853.01 L 22.5623 1853.24 C 21.38 1855.32 20.3855 1856.53 18.5232 1858.04 C 18.3378 1858.19 18.1489 1858.33 17.9617 1858.48 C 21.3294 1844.63 22.1201 1830.12 25.7384 1816.37 C 28.667 1796.9 30.6422 1775.63 36.1405 1756.78 C 36.8089 1749.66 29.1542 1745.25 25.4708 1739.78 C 23.745 1737.22 22.3572 1734.56 22.0361 1731.44 C 20.1374 1713.05 25.6451 1688.75 28.3595 1670.29 C 32.24 1643.11 36.4523 1615.98 40.9953 1588.91 z"></path><path fill="#3166a0" d="M 36.1405 1756.78 C 36.0718 1764.96 38.3439 1768.05 39.1526 1775.13 C 40.4522 1786.51 32.7086 1807.54 25.7384 1816.37 C 28.667 1796.9 30.6422 1775.63 36.1405 1756.78 z"></path></svg></svg> <!----></g></g> <g transform="translate(68.52000427246094,10.813133239746094)"><g data-gra="path-name" fill-rule="" class="tp-name iconsvg-namesvg" fill="url(#36c6495c-4e8c-491e-970a-30986a6e35a4)"><g transform="scale(1)"><g><path d="M18.15-5.08L18.56-0.71Q17.18-0.11 15.35 0.15 13.52 0.41 11.95 0.41L11.95 0.41Q6.87 0.41 4-2.24 1.12-4.89 1.12-10.38L1.12-10.38Q1.12-15.99 4.15-18.77 7.17-21.55 12.66-21.55L12.66-21.55Q15.28-21.55 18.11-20.84L18.11-20.84Q18.11-20.09 17.96-18.62 17.82-17.14 17.67-16.55L17.67-16.55 15.31-16.55Q12.74-16.55 11.26-16.45 9.79-16.36 9.49-16.1L9.49-16.1Q8.93-15.57 8.63-13.99 8.33-12.4 8.33-10.94L8.33-10.94Q8.33-8.4 8.96-7.04 9.6-5.68 10.57-5.23L10.57-5.23Q11.5-4.78 13.67-4.78L13.67-4.78Q15.39-4.78 18.15-5.08L18.15-5.08ZM20.84 0L20.84-21.29 36.34-21.29 36.34-16.81 27.56-16.81 27.56-12.92 34.96-12.92 34.96-8.89 27.56-8.89 27.56-4.56 36.3-4.56 36.3 0 20.84 0ZM45.45-11.5L45.42-8.59 45.42 0 39.18 0 39.18-21.29 45.49-21.29 51.13-12.7Q52.4-10.79 53.07-9.49L53.07-9.49 53.18-9.49 53.18-13.07 53.18-21.29 59.38-21.29 59.38 0 53.03 0 47.25-8.96 45.56-11.5 45.45-11.5ZM73.87-16.62L73.87 0 67.15 0 67.15-16.62 61.14-16.62 61.14-21.29 79.89-21.29 79.89-16.62 73.87-16.62ZM81.87 0L81.87-21.29 97.37-21.29 97.37-16.81 88.59-16.81 88.59-12.92 95.99-12.92 95.99-8.89 88.59-8.89 88.59-4.56 97.33-4.56 97.33 0 81.87 0ZM117.76-7.02L119.59 0 112.53 0 111.26-5.38Q111.19-5.68 111.02-6.41 110.85-7.13 110.63-7.49 110.4-7.84 109.99-7.96L109.99-7.96Q108.94-7.92 106.93-7.92L106.93-7.92 106.93 0 100.21 0 100.21-21.1Q104.72-21.44 108.65-21.44L108.65-21.44Q112.19-21.44 114.4-20.86 116.6-20.28 117.7-18.88 118.8-17.48 118.8-15.05L118.8-15.05Q118.8-12.77 117.76-11.48 116.71-10.2 114.4-9.93L114.4-9.93 114.4-9.71Q115.7-9.6 116.58-8.87 117.46-8.14 117.76-7.02L117.76-7.02ZM106.93-12.14Q107.26-12.1 108.24-12.1L108.24-12.1Q111.11-12.1 111.6-12.59L111.6-12.59Q112.04-13.03 112.04-14.68L112.04-14.68Q112.04-16.21 111.24-16.77 110.44-17.33 108.61-17.33L108.61-17.33Q108.2-17.33 106.93-17.25L106.93-17.25 106.93-12.14Z" transform="translate(-1.1200000047683716, 21.549999237060547)"></path></g> <!----> <!----> <!----> <!----> <!----> <!----> <g data-gra="path-name-1" fill="url(#f8066b41-a256-4171-86b4-62e6763869fe)" transform="translate(0,24.96000099182129)"><g transform="scale(1.02643)"><path d="M15.46-31.64Q19.94-31.64 23.03-30.81 26.12-29.99 27.97-27.64 29.82-25.29 29.82-20.93L29.82-20.93Q29.82-19 29.24-16.98 28.66-14.97 27.8-13.47 26.95-11.98 26.29-11.54L26.29-11.54Q25.51-10.99 22.86-10.69 20.21-10.38 16.62-10.38L16.62-10.38Q15.35-10.38 12.7-10.49L12.7-10.49 12.7 0 2.76 0 2.76-31.48Q8.56-31.64 15.46-31.64L15.46-31.64ZM19.6-17.45Q20.16-18.17 20.16-20.32L20.16-20.32Q20.16-23.14 18.97-24.3 17.78-25.46 14.86-25.46L14.86-25.46Q13.86-25.46 12.7-25.29L12.7-25.29 12.7-16.9Q13.25-16.84 14.86-16.84L14.86-16.84Q19.11-16.84 19.6-17.45L19.6-17.45ZM33.24 0L33.24-31.48 43.18-31.48 43.18-7.29 56.05-7.29 56.05 0 33.24 0ZM79.13-31.48L89.08-31.48 89.08-13.86Q89.08-8.39 87.89-5.33 86.7-2.26 83.44-0.83 80.18 0.61 73.94 0.61L73.94 0.61Q69.36 0.61 66.21-0.36 63.06-1.33 61.21-4.03 59.36-6.74 59.36-11.65L59.36-11.65 59.36-31.48 69.31-31.48 69.31-13.75Q69.31-10.82 69.61-9.31 69.91-7.79 71.02-6.99 72.12-6.18 74.39-6.18L74.39-6.18Q75.77-6.18 76.98-6.46 78.2-6.74 78.64-7.29L78.64-7.29Q79.13-7.95 79.13-12.09L79.13-12.09 79.13-31.48ZM103.38-22.97Q103.38-21.81 104.57-21.15 105.75-20.49 108.29-19.71L108.29-19.71Q111.33-18.72 113.29-17.78 115.25-16.84 116.71-14.86 118.18-12.87 118.18-9.66L118.18-9.66Q118.18 0.61 104.81 0.61L104.81 0.61Q102.6 0.61 99.43 0.22 96.25-0.17 93.66-0.77L93.66-0.77Q93.77-1.93 94.13-4.17 94.49-6.41 94.82-7.51L94.82-7.51Q96.75-7.23 100.64-6.85 104.54-6.46 106.53-6.46L106.53-6.46Q107.69-6.46 107.91-6.63L107.91-6.63Q108.24-6.85 108.43-7.37 108.62-7.9 108.62-8.28L108.62-8.28Q108.62-9.39 107.57-9.97 106.53-10.55 103.99-11.38L103.99-11.38Q100.95-12.31 98.96-13.31 96.97-14.3 95.48-16.4 93.99-18.5 93.99-21.92L93.99-21.92Q93.99-24.35 95.09-26.7 96.2-29.05 97.36-29.88L97.36-29.88Q98.24-30.48 101-31.04 103.76-31.59 106.19-31.59L106.19-31.59Q112.38-31.59 116.3-30.43L116.3-30.43Q116.24-29.32 115.94-27.39 115.64-25.46 115.31-23.86L115.31-23.86 114.04-23.91Q106.86-24.41 104.87-24.41L104.87-24.41Q104.04-24.41 103.93-24.35L103.93-24.35Q103.71-24.24 103.54-23.86 103.38-23.47 103.38-22.97L103.38-22.97Z" transform="translate(-2.759999990463257, 31.639999389648438)"></path></g></g></g></g> <!----></g></g><defs v-gra="od"><linearGradient x1="0" y1="1" x2="0" y2="0" id="36c6495c-4e8c-491e-970a-30986a6e35a4"><stop offset="0%" stop-color="#b722ff"></stop><stop offset="100%" stop-color="#22d4fe"></stop></linearGradient><filter id="42443b3f1de60f6b6fd3b6a9844b4764" filterUnits="objectBoundingBox"><feColorMatrix type="matrix" values="0 0 0 0 0.99609375  0 0 0 0 0.99609375  0 0 0 0 0.99609375  0 0 0 1 0"></feColorMatrix></filter><linearGradient x1="0" y1="1" x2="0" y2="0" id="f8066b41-a256-4171-86b4-62e6763869fe"><stop offset="0%" stop-color="#b722ff"></stop><stop offset="100%" stop-color="#22d4fe"></stop></linearGradient><filter id="42443b3f1de60f6b6fd3b6a9844b4764" filterUnits="objectBoundingBox"><feColorMatrix type="matrix" values="0 0 0 0 0.99609375  0 0 0 0 0.99609375  0 0 0 0 0.99609375  0 0 0 1 0"></feColorMatrix></filter></defs></svg>